<?xml version="1.0" encoding="UTF-8" standalone="no"?>
<!-- Created with Inkscape (http://www.inkscape.org/) -->

<svg
   version="1.1"
   id="svg62"
   width="1024"
   height="1024"
   viewBox="0 0 1024 1024"
   sodipodi:docname="logo_roberta_branca.svg"
   inkscape:version="1.2.2 (b0a8486541, 2022-12-01)"
   xmlns:inkscape="http://www.inkscape.org/namespaces/inkscape"
   xmlns:sodipodi="http://sodipodi.sourceforge.net/DTD/sodipodi-0.dtd"
   xmlns="http://www.w3.org/2000/svg"
   xmlns:svg="http://www.w3.org/2000/svg">
  <defs
     id="defs66" />
  <sodipodi:namedview
     id="namedview64"
     pagecolor="#ffffff"
     bordercolor="#000000"
     borderopacity="0.25"
     inkscape:showpageshadow="2"
     inkscape:pageopacity="0.0"
     inkscape:pagecheckerboard="0"
     inkscape:deskcolor="#d1d1d1"
     showgrid="false"
     inkscape:zoom="0.5"
     inkscape:cx="177"
     inkscape:cy="512"
     inkscape:window-width="1366"
     inkscape:window-height="731"
     inkscape:window-x="0"
     inkscape:window-y="0"
     inkscape:window-maximized="1"
     inkscape:current-layer="g68" />
  <g
     inkscape:groupmode="layer"
     inkscape:label="Image"
     id="g68">
    <g
       id="g1923"
       transform="matrix(3.5,0,0,3.51760563380282,-1374,-117.633802816901)">
      <path id="gold-tone-1" d="M 527.368 38.332 C 527.690 39.614, 528.452 45.127, 529.061 50.582 C 530.463 63.131, 529.474 76.542, 526.523 85 C 525.276 88.575, 521.327 97.805, 517.748 105.511 C 510.736 120.611, 509.193 124.697, 505.741 137.312 C 503.773 144.502, 503.502 147.877, 503.514 165 C 503.526 181.840, 503.850 185.932, 505.891 195 C 507.191 200.775, 509.382 208.650, 510.760 212.500 C 512.138 216.350, 516.759 226.475, 521.028 235 C 525.298 243.525, 529.850 253.650, 531.144 257.500 C 533.319 263.967, 533.498 266.100, 533.499 285.500 C 533.500 303.323, 533.211 307.446, 531.590 312.756 C 530.539 316.197, 530.015 319.347, 530.426 319.756 C 532.078 321.403, 538.802 310.164, 540.960 302.147 C 541.600 299.772, 542.525 287.629, 543.016 275.164 C 543.657 258.903, 544.463 250.099, 545.869 244 C 550.234 225.070, 558.793 208.669, 571.150 195.558 C 575.357 191.094, 582.557 184.864, 587.150 181.714 C 597.094 174.892, 610.610 168.874, 623.519 165.520 C 634.588 162.644, 651 161.071, 651 162.885 C 651 163.530, 649.586 166.857, 647.857 170.279 C 646.128 173.700, 642.954 181.837, 640.803 188.361 C 632.733 212.832, 625.418 228.341, 616.137 240.657 C 608.613 250.643, 596.941 261.785, 587.830 267.678 C 579.376 273.147, 562.646 281.097, 554.801 283.373 C 551.666 284.282, 548.801 285.514, 548.433 286.109 C 548.065 286.705, 548.469 287.898, 549.331 288.760 C 551.677 291.105, 558.575 290.447, 568.553 286.925 C 584.879 281.163, 597.991 272.933, 611.353 260.064 C 620.330 251.417, 631.855 234.868, 637.873 221.985 C 640.052 217.318, 644.354 205.899, 647.431 196.610 C 652.395 181.626, 656.009 173.411, 662.569 162.200 C 664.450 158.987, 664.451 158.864, 662.638 157.508 C 657.883 153.952, 635.553 154.399, 619.968 158.362 C 598.384 163.851, 582.144 172.412, 567.906 185.808 C 558.512 194.647, 552.722 202.562, 546.187 215.500 C 540.542 226.676, 538.280 233.768, 535.665 248.500 C 535.257 250.795, 535.114 250.500, 532.495 242 C 531.564 238.975, 529.463 233.800, 527.827 230.500 C 517.173 209.013, 512 188.508, 512 167.770 C 512 151.999, 516.866 129.973, 524.157 112.733 C 529.666 99.710, 533.902 86.636, 535.088 79 C 536.298 71.210, 535.753 54.801, 534.044 47.528 C 533.531 45.344, 533.271 43.396, 533.467 43.200 C 534.057 42.610, 557.151 62.335, 562.117 67.670 C 568.970 75.033, 577.911 87.481, 583 96.748 C 585.475 101.254, 588.063 104.955, 588.750 104.971 C 589.438 104.987, 590 104.567, 590 104.038 C 590 102.116, 585.627 91.369, 582.661 86 C 575.344 72.755, 563.001 59.212, 548 47.966 C 541.457 43.061, 529.636 36, 527.967 36 C 527.226 36, 527.002 36.873, 527.368 38.332 M 493 63.967 C 481.773 66.379, 471.299 70.224, 461.500 75.529 C 451.008 81.210, 445.150 85.464, 437.208 93.169 C 423.275 106.686, 413.268 123.428, 407.125 143.500 C 401.973 160.336, 400.733 178.018, 403.445 196.004 C 407.324 221.739, 418.895 244.881, 437.379 263.871 C 446.137 272.869, 458.872 282.385, 468.943 287.457 C 479.239 292.643, 493.105 296.450, 509.151 298.499 C 515.354 299.291, 526.369 297.284, 529.549 294.783 C 531.103 293.560, 531.989 291.978, 531.804 290.755 C 531.519 288.866, 530.661 288.725, 518 288.477 C 508.102 288.284, 502.396 287.651, 496.614 286.104 C 484.992 282.996, 469.075 275.530, 460.255 269.050 C 447.905 259.977, 434.289 245.175, 427.261 233.183 C 423.103 226.088, 417.264 211.827, 414.833 202.832 C 412.868 195.563, 412.576 192.011, 412.541 175 C 412.507 159.052, 412.827 154.407, 414.295 149.500 C 418.525 135.360, 425.676 120.038, 432.496 110.500 C 437.894 102.950, 450.651 90.594, 458.500 85.312 C 461.800 83.091, 467.293 79.865, 470.707 78.144 C 482.230 72.335, 498.386 67.799, 512.250 66.482 C 518.017 65.934, 519 65.561, 519 63.920 C 519 62.167, 518.237 62.006, 510.250 62.070 C 505.438 62.109, 497.675 62.962, 493 63.967 M 610.500 102.616 C 609.400 102.894, 604.974 104.007, 600.663 105.090 C 591.442 107.407, 582.191 111.439, 574.718 116.399 C 565.324 122.634, 554.182 132.820, 548.599 140.276 C 542.321 148.661, 536.978 158.130, 533.441 167.139 C 530.290 175.167, 527.331 189.780, 526.435 201.750 C 525.851 209.543, 525.974 211, 527.215 211 C 528.270 211, 529.171 208.518, 530.392 202.250 C 532.812 189.821, 535.574 181.001, 540.584 169.703 C 545.404 158.831, 555.037 144.470, 563.198 135.991 C 569.730 129.204, 579.684 121.687, 586.993 118.022 C 590.022 116.503, 595.875 114.104, 600 112.691 C 608.127 109.906, 622.806 107.662, 626.625 108.621 C 627.931 108.949, 629 109.384, 629 109.588 C 629 109.792, 627.047 111.759, 624.660 113.960 C 622.272 116.160, 618.890 120.782, 617.142 124.230 C 612.992 132.419, 610.613 143.968, 611.718 150.560 C 612.450 154.925, 612.834 155.500, 615.019 155.500 C 617.280 155.500, 617.553 155.007, 618.212 149.734 C 619.595 138.660, 624.097 127.029, 629.597 120.317 C 631.511 117.980, 635.085 114.627, 637.539 112.865 C 639.993 111.103, 642 109.037, 642 108.274 C 642 107.512, 639.862 105.938, 637.250 104.777 C 633.659 103.181, 630.060 102.598, 622.500 102.388 C 617 102.235, 611.600 102.338, 610.500 102.616 M 457.487 108.500 C 458.319 110.425, 459.657 113.518, 460.461 115.374 C 461.264 117.229, 462.387 121.660, 462.955 125.219 C 464.242 133.275, 462.955 141.138, 458.981 149.500 C 457.413 152.800, 453.184 158.767, 449.585 162.761 C 442.396 170.736, 440 174.632, 440 178.345 C 440 181.507, 444.241 185.790, 450.809 189.259 L 456.032 192.017 454.016 195.969 C 452.907 198.142, 452 201.288, 452 202.960 C 452 206.019, 454.940 210, 457.200 210 C 458.133 210, 458.133 210.267, 457.200 211.200 C 456.540 211.860, 456 213.548, 456 214.950 C 456 216.626, 457.199 218.529, 459.498 220.500 L 462.995 223.500 461.420 228.759 C 459.946 233.680, 459.962 234.258, 461.672 237.741 C 463.833 242.140, 470.077 246.767, 475.574 248.042 C 477.733 248.543, 484.931 248.963, 491.568 248.976 C 507.320 249.007, 512.565 250.530, 519.494 257.082 C 522.353 259.787, 524.987 262, 525.347 262 C 527.058 262, 525.629 258.860, 522.084 254.833 C 519.837 252.281, 515.469 249.027, 511.834 247.198 C 506.383 244.456, 503.585 243.814, 491.762 242.594 C 476.747 241.044, 471.491 239.244, 469.044 234.813 C 467.714 232.404, 467.742 231.619, 469.317 227.240 C 470.283 224.553, 470.787 221.609, 470.437 220.698 C 470.088 219.786, 468.271 218.095, 466.401 216.939 C 464.530 215.783, 463 214.485, 463 214.054 C 463 213.624, 465.049 212.489, 467.553 211.533 C 470.698 210.332, 472.011 209.295, 471.797 208.183 C 471.512 206.707, 470.361 206.296, 461.250 204.424 C 459.567 204.078, 459.009 203.274, 459.035 201.231 C 459.055 199.729, 459.714 197.375, 460.500 196 C 462.418 192.644, 462.363 188.547, 460.378 186.899 C 459.487 186.159, 456.449 184.403, 453.628 182.997 C 446.522 179.455, 446.425 177.253, 453.034 169.500 C 464.460 156.096, 469.772 143.169, 468.676 131.436 C 468.365 128.098, 467.118 122.718, 465.906 119.479 C 463.133 112.066, 458.905 105, 457.244 105 C 456.262 105, 456.318 105.797, 457.487 108.500 M 614.608 183.167 C 614.391 183.900, 613.673 187.200, 613.012 190.500 C 612.350 193.800, 611.089 198.748, 610.209 201.495 C 607.944 208.567, 598.723 226.222, 593.256 233.954 C 590.710 237.554, 585.224 244.036, 581.064 248.357 C 572.872 256.866, 564.452 263.349, 556.220 267.483 C 553.349 268.925, 551 270.532, 551 271.053 C 551 273.236, 557.374 271.709, 565.648 267.544 C 576.783 261.939, 589.621 250.948, 598.057 239.797 C 604.211 231.665, 612.602 215.423, 614.745 207.500 C 616.630 200.532, 618.210 189.625, 617.849 186.077 C 617.497 182.629, 615.338 180.691, 614.608 183.167 M 271.441 465.468 C 269.874 466.653, 265.256 466.943, 247.500 466.971 C 222.632 467.010, 184.762 468.096, 185.418 468.751 C 185.656 468.990, 204.823 469.541, 228.010 469.977 C 256.702 470.516, 270.525 471.125, 271.285 471.885 C 272.754 473.354, 276.292 473.308, 277.800 471.800 C 279.637 469.963, 279.228 466.192, 277.066 465.035 C 274.508 463.666, 273.746 463.725, 271.441 465.468 M 754.750 465.080 C 752.741 466.250, 752.432 470.032, 754.200 471.800 C 755.745 473.345, 759.258 473.342, 760.807 471.793 C 761.690 470.910, 773.394 470.417, 804.513 469.954 C 827.888 469.605, 847.238 469.095, 847.513 468.820 C 848.168 468.165, 808.044 467.010, 783.088 466.965 C 767.993 466.937, 762.927 466.601, 761 465.500 C 758.021 463.797, 757.063 463.733, 754.750 465.080" stroke="none" fill="#F0D99A" fill-rule="evenodd"/>
      <path id="gold-tone-2" d="M 527.353 37.477 C 528.933 41.596, 530.204 57.701, 529.722 67.500 C 529.085 80.440, 527.539 85.508, 518.309 104.918 C 514.799 112.298, 510.604 122.423, 508.987 127.418 C 507.369 132.413, 505.305 141.450, 504.401 147.500 C 501.667 165.798, 503.723 189.522, 509.674 208.361 C 512.152 216.207, 514.929 222.366, 523.808 239.708 C 526.119 244.222, 529.429 252.097, 531.164 257.208 C 534.268 266.355, 534.318 266.805, 534.360 286 C 534.398 303.479, 534.175 306.174, 532.214 312 C 531.010 315.575, 530.020 318.823, 530.013 319.219 C 530.006 319.614, 530.589 319.711, 531.309 319.435 C 533.395 318.635, 538.715 309.013, 540.464 302.881 C 541.558 299.041, 542.355 289.857, 542.980 273.881 C 543.686 255.819, 544.368 248.623, 545.977 242.251 C 548.958 230.444, 553.391 219.962, 559.757 209.672 C 571.817 190.175, 591.404 175.350, 615.500 167.480 C 619.900 166.043, 627.100 164.223, 631.500 163.435 C 639.300 162.038, 652 161.475, 652 162.525 C 652 162.814, 650.462 166.105, 648.581 169.839 C 646.701 173.572, 644.385 179.074, 643.434 182.064 C 639.431 194.649, 631.461 215.090, 627.472 223 C 625.114 227.675, 620.946 234.671, 618.209 238.547 C 611.885 247.503, 600.178 259.345, 591.589 265.474 C 583.319 271.375, 565.560 280.165, 556.103 283.037 C 552.195 284.224, 548.734 285.621, 548.412 286.142 C 547.235 288.047, 550.283 290, 554.435 290 C 559.533 290, 573.007 285.552, 582.500 280.735 C 591.091 276.376, 601.660 268.991, 609.292 262.016 C 614.730 257.046, 626.177 242.620, 630.730 235 C 637.113 224.317, 641.734 213.359, 647.572 195.062 C 651.753 181.959, 656.598 170.867, 660.972 164.386 C 662.637 161.919, 664 159.507, 664 159.027 C 664 158.548, 662.313 157.558, 660.250 156.828 C 657.912 156, 652.171 155.524, 645 155.565 C 637.040 155.610, 630.342 156.317, 623.241 157.863 C 611.623 160.392, 603.192 163.369, 592.719 168.639 C 577.928 176.082, 565.947 185.932, 556.994 198.008 C 554.189 201.792, 549.706 209.184, 547.033 214.436 C 541.800 224.713, 538.717 233.623, 536.598 244.589 C 535.863 248.390, 535.030 250.825, 534.745 250 C 534.461 249.175, 533.694 246.538, 533.041 244.139 C 532.388 241.741, 529.216 234.020, 525.992 226.982 C 519.376 212.539, 514.579 197.241, 513.041 185.678 C 511.553 174.494, 511.761 157.901, 513.516 147.870 C 515.540 136.301, 519.523 123.402, 526.319 106.412 C 532.421 91.157, 534.584 83.118, 535.311 73 C 535.772 66.590, 534.664 50.495, 533.421 45.543 C 533.055 44.082, 533.211 43, 533.789 43 C 534.342 43, 536.078 44.095, 537.647 45.434 C 539.216 46.773, 544.550 51.233, 549.500 55.347 C 563.112 66.657, 572.153 77.543, 582.371 94.927 C 587.668 103.938, 588.544 104.982, 588.822 102.620 C 589.224 99.207, 581.757 83.643, 576.050 76 C 570.063 67.981, 557.811 55.788, 549.318 49.395 C 540.965 43.109, 529.604 36, 527.911 36 C 527.292 36, 527.041 36.664, 527.353 37.477 M 496.864 63.471 C 479.848 66.380, 461.407 74.361, 447.085 85.016 C 438.354 91.511, 428.889 101.328, 423.008 109.988 C 420.763 113.294, 416.939 119.992, 414.511 124.871 C 403.463 147.069, 399.717 173.939, 404.105 199.500 C 406.535 213.659, 413.672 232.040, 421.202 243.535 C 433.797 262.763, 449.677 277.246, 468.686 286.841 C 478.164 291.626, 484.625 293.847, 495.358 296.012 C 512.194 299.407, 527.463 298.276, 530.660 293.397 C 531.500 292.114, 532.022 290.565, 531.819 289.956 C 531.578 289.234, 526.569 288.744, 517.475 288.551 C 507.072 288.331, 501.556 287.718, 495.895 286.152 C 484.617 283.033, 472.615 277.589, 463.021 271.243 C 453.358 264.850, 439.636 251.553, 432.760 241.917 C 426.704 233.429, 418.746 216.803, 415.331 205.500 C 412.754 196.974, 412.608 195.395, 412.556 175.500 C 412.502 155.138, 412.586 154.230, 415.328 145.599 C 419.065 133.837, 424.756 121.676, 430.683 112.785 C 440.840 97.546, 459.555 82.119, 476.376 75.116 C 484.730 71.638, 500.031 67.387, 507 66.608 C 515.420 65.666, 519.077 64.730, 518.708 63.613 C 518.178 62.008, 505.888 61.929, 496.864 63.471 M 606 103.920 C 591.340 107.205, 580.827 112, 569.500 120.569 C 565.650 123.481, 559.508 128.932, 555.850 132.682 C 549.619 139.071, 541.371 150.401, 537.634 157.706 C 535.020 162.815, 530.218 177.004, 529.074 183 C 527.690 190.247, 525.982 209.162, 526.618 210.191 C 527.799 212.102, 528.818 210.680, 529.442 206.250 C 530.898 195.924, 536.358 178.009, 541.068 168.111 C 549.605 150.166, 563.724 132.554, 576.287 124.176 C 587.986 116.375, 599.391 111.530, 611 109.428 C 619.743 107.845, 628.636 107.602, 629.453 108.924 C 629.767 109.431, 628.613 110.851, 626.890 112.078 C 622.548 115.170, 616.358 125.101, 613.985 132.783 C 611.738 140.060, 611.280 152.880, 613.200 154.800 C 615.526 157.126, 616.875 156.020, 617.525 151.250 C 619.510 136.693, 625.434 123.402, 633.268 115.931 C 636.114 113.215, 639.269 110.732, 640.279 110.412 C 643.721 109.319, 641.671 106.559, 636.023 104.686 C 627.782 101.951, 616.116 101.654, 606 103.920 M 457.584 108.163 C 460.379 113.567, 462.876 121.785, 463.560 127.825 C 464.012 131.827, 463.709 135.588, 462.576 140.010 C 461.675 143.528, 459.947 148.388, 458.738 150.811 C 457.528 153.233, 454.022 157.979, 450.946 161.357 C 443.821 169.184, 440 174.873, 440 177.655 C 440 180.831, 444.531 185.729, 450.059 188.530 C 452.699 189.868, 455.101 191.354, 455.397 191.833 C 455.693 192.312, 455.050 194.441, 453.968 196.564 C 451.120 202.149, 451.406 205.501, 454.953 208.123 C 457.291 209.852, 457.708 210.678, 456.953 212.088 C 455.137 215.482, 455.912 217.925, 459.540 220.241 C 462.473 222.113, 462.978 222.928, 462.489 225 C 462.164 226.375, 461.646 229.797, 461.337 232.605 C 460.808 237.421, 460.972 237.905, 464.235 241.168 C 470.502 247.435, 473.648 248.320, 492 248.976 C 506.752 249.504, 508.977 249.817, 513 251.931 C 515.475 253.231, 519.170 256.122, 521.210 258.354 C 523.251 260.586, 525.197 262.137, 525.534 261.799 C 526.673 260.661, 523.087 255.237, 519.116 252.092 C 516.947 250.374, 512.683 247.829, 509.642 246.436 C 505.392 244.491, 501.381 243.683, 492.306 242.946 C 485.813 242.419, 478.398 241.291, 475.830 240.440 C 471.116 238.878, 467.987 235.613, 468.015 232.285 C 468.023 231.303, 468.656 228.703, 469.420 226.506 C 471.059 221.796, 470.234 219.602, 465.900 217.154 C 464.290 216.244, 463.092 214.862, 463.236 214.083 C 463.381 213.303, 465.413 212.028, 467.750 211.250 C 471.946 209.851, 473.296 207.711, 470.628 206.687 C 469.873 206.398, 467.161 205.847, 464.600 205.463 C 458.341 204.524, 457.304 202.485, 460.129 196.670 C 463.295 190.154, 462.298 187.684, 455.020 184.010 C 451.750 182.360, 448.608 180.137, 448.038 179.070 C 447.467 178.004, 447 176.923, 447 176.668 C 447 176.413, 449.895 172.722, 453.433 168.467 C 456.971 164.212, 461.239 158.152, 462.918 155.002 C 464.597 151.852, 466.696 146.445, 467.582 142.986 C 469.304 136.267, 468.991 129.943, 466.534 121.779 C 464.111 113.729, 459.057 105, 456.819 105 C 456.340 105, 456.685 106.423, 457.584 108.163 M 614.543 183.250 C 614.327 183.938, 613.855 186.690, 613.496 189.366 C 613.137 192.042, 611.998 196.874, 610.967 200.104 C 607.958 209.521, 599.356 225.893, 592.067 236.075 C 584.091 247.216, 571.051 259.201, 559.777 265.751 C 555.499 268.237, 552 270.659, 552 271.135 C 552 272.783, 556.073 271.987, 562.459 269.091 C 565.988 267.491, 571.041 264.693, 573.687 262.872 C 580.758 258.009, 594.601 244.403, 599.603 237.401 C 604.921 229.957, 611.211 217.409, 613.912 208.857 C 616.275 201.378, 618.374 186.753, 617.486 183.957 C 616.787 181.753, 615.140 181.357, 614.543 183.250 M 271.914 465.502 C 270.268 466.341, 260.429 466.932, 241 467.359 C 225.325 467.704, 207.137 467.990, 200.583 467.993 C 194.029 467.997, 188.925 468.258, 189.240 468.573 C 189.555 468.889, 207.834 469.452, 229.859 469.826 C 259.753 470.333, 270.222 470.822, 271.153 471.753 C 272.852 473.452, 276.486 473.324, 277.989 471.513 C 279.624 469.544, 278.501 465.364, 276.174 464.756 C 275.158 464.490, 273.241 464.826, 271.914 465.502 M 754.040 466.452 C 753.377 467.251, 753.127 468.825, 753.484 469.950 C 754.368 472.735, 758.330 473.583, 761.168 471.595 C 763.117 470.230, 767.699 469.982, 792.973 469.877 C 809.213 469.810, 827.225 469.473, 833 469.127 C 841.675 468.609, 838.476 468.370, 814.587 467.750 C 798.685 467.337, 780.374 467, 773.896 467 C 767.123 467, 761.855 466.575, 761.500 466 C 760.566 464.489, 755.409 464.802, 754.040 466.452" stroke="none" fill="#E6C36D" fill-rule="evenodd"/>
      <path id="gold-tone-3" d="M 527.473 37.750 C 528.959 41.539, 529.989 51.045, 530.129 62.278 C 530.210 68.757, 529.989 74.344, 529.638 74.695 C 529.287 75.046, 529 76.541, 529 78.017 C 529 81.974, 527.522 85.851, 519.474 103 C 515.473 111.525, 510.799 122.775, 509.088 128 C 504.966 140.586, 502.592 158.619, 503.427 171 C 505.053 195.109, 509.024 209.455, 520.452 232.500 C 525.088 241.850, 530.114 253.100, 531.620 257.500 C 534.232 265.134, 534.361 266.415, 534.429 285.500 C 534.488 302.240, 534.205 306.397, 532.690 311 C 531.695 314.025, 530.645 317.063, 530.357 317.750 C 530.069 318.437, 530.437 319, 531.174 319 C 532.883 319, 537.140 311.975, 539.356 305.500 C 541.385 299.571, 541.763 295.809, 542.977 269.500 C 543.708 253.640, 544.398 247.637, 546.309 240.500 C 551.529 221.004, 559.438 206.670, 572 193.936 C 576.675 189.197, 584.100 182.860, 588.500 179.852 C 595.926 174.777, 612.766 167, 616.330 167 C 617.184 167, 618.129 166.601, 618.430 166.113 C 618.731 165.626, 620.558 164.930, 622.489 164.568 C 624.420 164.206, 626 163.580, 626 163.178 C 626 162.776, 627.688 162.606, 629.750 162.800 C 631.813 162.994, 634.850 162.595, 636.500 161.915 C 638.150 161.234, 639.950 160.821, 640.500 160.998 C 641.050 161.174, 643.525 161.413, 646 161.529 C 648.475 161.645, 651.068 161.799, 651.763 161.870 C 652.593 161.956, 651.792 164.450, 649.419 169.161 C 647.436 173.099, 643.163 183.961, 639.925 193.298 C 630.246 221.207, 622.155 235.915, 608.060 251.225 C 604.655 254.923, 598.220 260.699, 593.759 264.060 C 585.022 270.644, 565.109 280.819, 555.684 283.516 C 549.810 285.197, 547.541 287.462, 550.104 289.086 C 550.872 289.572, 552.850 289.970, 554.500 289.970 C 557.936 289.970, 570.132 286.267, 577.500 282.987 C 595.467 274.988, 614.386 258.730, 626.082 241.239 C 629.943 235.464, 634.366 228.211, 635.909 225.120 C 639.151 218.629, 643.397 207.184, 648.405 191.438 C 651.716 181.028, 659.424 164.456, 662.613 160.893 C 663.869 159.490, 663.838 159.111, 662.370 157.893 C 661.086 156.829, 656.895 156.502, 644.595 156.510 C 630.956 156.518, 627.127 156.877, 619.500 158.865 C 608.444 161.746, 595.744 166.894, 586.786 172.125 C 577.058 177.807, 566.306 186.785, 560.208 194.321 C 553.836 202.193, 546.343 214.986, 542.551 224.466 C 541.022 228.287, 538.753 236.158, 537.508 241.957 C 536.264 247.756, 535.039 251.825, 534.786 251 C 531.856 241.432, 529.253 234.439, 526.095 227.650 C 519.888 214.306, 519.334 212.889, 516.666 203.500 C 513.161 191.162, 511.774 180.664, 511.778 166.500 C 511.780 158.071, 512.429 151.376, 513.958 144 C 516.347 132.473, 522.879 112.149, 526.481 105.033 C 527.743 102.540, 529.994 96.675, 531.484 92 C 533.683 85.102, 534.290 80.956, 534.706 70 C 535.168 57.814, 534.390 48.705, 532.466 43.750 C 532.056 42.695, 532.249 42, 532.953 42 C 534.745 42, 549.284 53.488, 556.051 60.250 C 557.564 61.762, 559.297 63, 559.901 63 C 560.506 63, 561 63.601, 561 64.335 C 561 65.069, 562.237 66.844, 563.750 68.280 C 565.263 69.716, 567.400 72.094, 568.500 73.564 C 569.600 75.035, 571.324 77.121, 572.331 78.200 C 573.338 79.279, 577.043 84.963, 580.564 90.831 C 589.063 104.997, 589.199 105.179, 588.514 101.500 C 587.489 95.988, 579.007 80.140, 573.143 72.779 C 566.825 64.847, 558.460 56.779, 549.036 49.528 C 542.393 44.416, 529.112 36, 527.689 36 C 527.192 36, 527.095 36.788, 527.473 37.750 M 501.349 63.055 C 482.468 65.516, 462.638 73.616, 447 85.255 C 439.173 91.081, 428.592 102.270, 422.741 110.910 C 411.900 126.919, 404.599 147.748, 403.165 166.757 C 401.684 186.402, 404.081 204.544, 410.364 221.235 C 417.813 241.022, 431.697 260.425, 447.281 272.825 C 456.285 279.991, 469.030 287.481, 478.303 291.057 C 487.990 294.792, 504.050 298, 513.067 298 C 521.731 298, 529.834 295.596, 530.948 292.696 C 531.412 291.488, 531.420 290.104, 530.966 289.620 C 530.511 289.136, 525.638 288.824, 520.135 288.926 C 508.587 289.140, 500.748 287.960, 489.500 284.312 C 472.048 278.652, 456.462 268.624, 443 254.395 C 438.875 250.035, 433.332 243.210, 430.683 239.228 C 424.553 230.017, 418.632 217.210, 415.492 206.375 C 412.315 195.413, 410.966 178.455, 412.082 163.503 C 412.735 154.759, 413.726 149.610, 416.088 142.692 C 422.708 123.297, 432.675 107.146, 445.325 95.312 C 457.477 83.945, 470.538 76.194, 486 71.174 C 492.320 69.122, 500.440 67.053, 504.500 66.459 C 505.600 66.298, 506.500 66.095, 506.500 66.007 C 506.500 65.919, 509.150 65.669, 512.388 65.452 C 515.626 65.235, 518.484 64.850, 518.738 64.595 C 518.992 64.341, 518.904 63.653, 518.541 63.067 C 517.798 61.864, 510.522 61.860, 501.349 63.055 M 601.500 105.450 C 596.550 106.744, 590.255 108.777, 587.511 109.968 C 579.083 113.627, 566.042 122.965, 557.535 131.434 C 549.508 139.425, 542.627 148.849, 537.772 158.500 C 533.151 167.687, 529.237 181.155, 528.100 191.789 C 526.770 204.225, 526.694 211, 527.885 211 C 528.371 211, 529.087 208.458, 529.475 205.351 C 530.478 197.325, 535.226 181.021, 539.596 170.596 C 543.440 161.426, 554.428 143.953, 559.903 138.304 C 561.606 136.547, 563 134.516, 563 133.791 C 563 133.067, 564.013 132.026, 565.250 131.478 C 566.703 130.835, 567.380 129.795, 567.161 128.545 C 566.890 126.996, 567.099 126.838, 568.205 127.755 C 569.282 128.649, 570.244 128.368, 572.544 126.488 C 574.170 125.159, 574.938 124.056, 574.250 124.036 C 573.563 124.016, 573 123.541, 573 122.981 C 573 122.393, 574.058 122.228, 575.500 122.589 C 577.299 123.041, 578 122.813, 578 121.777 C 578 120.986, 579.125 119.736, 580.500 119 C 581.875 118.264, 583 117.280, 583 116.812 C 583 116.344, 584.125 116.244, 585.500 116.589 C 587.040 116.976, 588 116.791, 588 116.108 C 588 115.499, 587.212 114.993, 586.250 114.985 C 584.798 114.972, 584.748 114.813, 585.952 114.051 C 586.751 113.545, 587.792 113.371, 588.265 113.664 C 588.739 113.957, 589.885 113.545, 590.813 112.750 C 593.338 110.586, 595.623 110.023, 596.861 111.261 C 597.469 111.869, 598.299 112.035, 598.704 111.629 C 599.110 111.223, 598.855 110.528, 598.137 110.084 C 597.166 109.485, 597.354 109.141, 598.868 108.745 C 599.988 108.452, 601.122 108.727, 601.389 109.356 C 601.698 110.084, 602.484 109.773, 603.552 108.500 C 604.721 107.106, 605.371 106.879, 605.698 107.750 C 606.352 109.493, 609.665 109.316, 610.362 107.500 C 611.059 105.682, 613.658 105.516, 614.286 107.250 C 614.631 108.203, 615.196 108.232, 616.662 107.371 C 617.720 106.750, 620.592 106.432, 623.043 106.664 C 625.494 106.897, 628.288 107.164, 629.250 107.258 C 630.212 107.352, 631 107.773, 631 108.194 C 631 108.615, 628.525 111.356, 625.500 114.286 C 622.475 117.216, 620 120.118, 620 120.735 C 620 121.352, 620.707 122.564, 621.571 123.429 C 623 124.857, 622.957 125, 621.103 125 C 619.700 125, 619.243 124.531, 619.638 123.500 C 620.690 120.759, 619.077 121.951, 617.433 125.129 C 615.897 128.099, 615.923 128.404, 617.937 131.129 L 620.060 134 617.830 134 C 616.096 134, 615.867 134.267, 616.800 135.200 C 618.247 136.647, 618.402 138.366, 617.008 137.505 C 616.462 137.168, 615.288 137.299, 614.398 137.797 C 612.919 138.625, 612.924 138.757, 614.454 139.344 C 615.374 139.697, 615.842 140.446, 615.494 141.009 C 615.146 141.572, 614.491 141.803, 614.038 141.523 C 612.767 140.738, 611.933 145.417, 612.680 149.148 C 613.273 152.115, 615.058 155, 616.300 155 C 616.543 155, 617.051 152.637, 617.428 149.750 C 618.477 141.715, 620.872 134.181, 624.742 126.740 C 626.676 123.021, 630.108 118.184, 632.369 115.990 C 634.630 113.795, 636.822 112, 637.240 112 C 637.658 112, 638 111.480, 638 110.845 C 638 110.154, 637.265 110.355, 636.171 111.345 C 635.165 112.255, 633.760 113, 633.049 113 C 632.017 113, 632.005 112.699, 632.989 111.513 C 633.668 110.695, 633.963 109.345, 633.643 108.513 C 632.889 106.548, 634.942 106.571, 637.779 108.558 C 640.412 110.402, 642.715 109.566, 640.929 107.414 C 638.793 104.840, 629.989 102.998, 620.068 103.049 C 613.374 103.084, 607.797 103.805, 601.500 105.450 M 457.293 106.500 C 457.599 107.600, 459.120 111.425, 460.674 115 C 463.168 120.737, 463.495 122.674, 463.459 131.500 C 463.421 140.956, 463.218 141.908, 459.739 149 C 457.445 153.677, 453.603 159.135, 449.533 163.500 C 445.942 167.350, 442.302 171.974, 441.443 173.776 C 439.779 177.267, 440.204 180.324, 442.758 183.234 C 443.596 184.187, 446.655 186.308, 449.558 187.946 C 452.460 189.584, 455.110 191.369, 455.446 191.913 C 455.782 192.456, 455.144 194.604, 454.028 196.686 C 452.913 198.767, 452 201.534, 452 202.834 C 452 204.190, 453.328 206.438, 455.115 208.108 C 457.674 210.498, 458.011 211.281, 457.003 212.496 C 455.154 214.724, 456.537 218.295, 460.054 220.373 C 462.689 221.929, 463.088 222.647, 462.553 224.863 C 462.203 226.313, 461.685 229.525, 461.403 232 C 460.690 238.241, 463.233 241.988, 470.643 245.614 C 476.181 248.323, 477.182 248.468, 491.859 248.676 C 506.205 248.879, 507.630 249.073, 512.606 251.508 C 515.544 252.946, 519.532 255.972, 521.468 258.234 C 523.404 260.495, 525.259 262.074, 525.591 261.742 C 526.746 260.587, 522.627 255.126, 517.859 251.490 C 515.219 249.477, 510.775 246.962, 507.981 245.901 C 505.078 244.798, 498.104 243.562, 491.701 243.017 C 485.540 242.493, 478.755 241.562, 476.622 240.950 C 474.490 240.337, 471.632 238.723, 470.272 237.363 C 467.693 234.784, 467.684 234.622, 469.562 223.830 C 470.163 220.375, 469.962 220.003, 466.116 217.458 C 463.870 215.972, 462.300 214.324, 462.627 213.795 C 462.953 213.267, 465.196 211.988, 467.610 210.953 C 470.025 209.918, 472 208.653, 472 208.143 C 472 206.861, 469.444 206, 465.641 206 C 462.038 206, 458 203.606, 458 201.470 C 458 200.691, 458.974 198.050, 460.163 195.601 C 462.223 191.362, 462.245 191.023, 460.635 188.566 C 459.704 187.145, 456.974 185.058, 454.568 183.927 C 452.161 182.796, 449.403 180.998, 448.438 179.931 C 447.051 178.399, 446.905 177.521, 447.741 175.746 C 448.323 174.511, 450.874 171.095, 453.411 168.155 C 458.131 162.685, 465.173 151.360, 466.474 147.146 C 468.298 141.240, 468.653 133.398, 467.395 126.799 C 466.089 119.940, 461.234 108.855, 458.286 106 C 456.903 104.660, 456.797 104.713, 457.293 106.500 M 630 114 C 630 114.550, 630.477 115, 631.059 115 C 631.641 115, 631.840 114.550, 631.500 114 C 631.160 113.450, 630.684 113, 630.441 113 C 630.198 113, 630 113.450, 630 114 M 624.500 118 C 624.160 118.550, 624.359 119, 624.941 119 C 625.523 119, 626 118.550, 626 118 C 626 117.450, 625.802 117, 625.559 117 C 625.316 117, 624.840 117.450, 624.500 118 M 624.459 121.067 C 624.096 121.653, 624.014 122.348, 624.276 122.610 C 624.538 122.872, 625.019 122.392, 625.345 121.543 C 626.021 119.781, 625.445 119.471, 624.459 121.067 M 617.688 126.646 C 616.383 127.950, 617.006 129, 619.083 129 C 620.247 129, 620.992 128.476, 620.771 127.813 C 620.284 126.351, 618.614 125.719, 617.688 126.646 M 615 131 C 615 131.733, 615.300 132.033, 615.667 131.667 C 616.033 131.300, 616.033 130.700, 615.667 130.333 C 615.300 129.967, 615 130.267, 615 131 M 614 135 C 614 135.733, 614.300 136.033, 614.667 135.667 C 615.033 135.300, 615.033 134.700, 614.667 134.333 C 614.300 133.967, 614 134.267, 614 135 M 614 144.059 C 614 144.641, 614.450 144.840, 615 144.500 C 615.550 144.160, 616 143.684, 616 143.441 C 616 143.198, 615.550 143, 615 143 C 614.450 143, 614 143.477, 614 144.059 M 634 160 C 634 160.550, 634.675 161, 635.500 161 C 636.325 161, 637 160.550, 637 160 C 637 159.450, 636.325 159, 635.500 159 C 634.675 159, 634 159.450, 634 160 M 628 161 C 628 161.550, 628.423 162, 628.941 162 C 629.459 162, 630.160 161.550, 630.500 161 C 630.840 160.450, 630.416 160, 629.559 160 C 628.702 160, 628 160.450, 628 161 M 599 171 C 599 171.550, 599.450 172, 600 172 C 600.550 172, 601 171.550, 601 171 C 601 170.450, 600.550 170, 600 170 C 599.450 170, 599 170.450, 599 171 M 615.560 183.250 C 615.352 183.938, 614.215 188.550, 613.033 193.500 C 610.520 204.022, 603.446 219.417, 595.453 231.759 C 586.438 245.678, 566.792 263.540, 554.750 268.764 C 551.651 270.109, 551.083 272, 553.778 272 C 556.785 272, 570.069 265.138, 576.978 260.017 C 588.644 251.368, 601.151 236.703, 607.267 224.500 C 608.646 221.750, 611.213 215.450, 612.972 210.500 C 615.402 203.665, 616.306 199.155, 616.731 191.750 C 617.039 186.387, 616.986 182, 616.614 182 C 616.242 182, 615.767 182.563, 615.560 183.250 M 644 189 C 644 189.733, 644.300 190.033, 644.667 189.667 C 645.033 189.300, 645.033 188.700, 644.667 188.333 C 644.300 187.967, 644 188.267, 644 189 M 271.450 465.910 C 270.075 467.229, 255.574 467.873, 221.500 468.129 C 194.659 468.331, 193.079 468.427, 206.500 469.048 C 214.750 469.430, 232.203 469.800, 245.285 469.871 C 265.145 469.979, 269.469 470.261, 271.486 471.583 C 272.868 472.488, 274.758 472.894, 275.900 472.532 C 278.409 471.735, 279.550 468.368, 277.960 466.452 C 276.611 464.827, 272.903 464.518, 271.450 465.910 M 754.050 466.907 C 753.269 468.367, 753.477 469.364, 754.935 471.157 C 756.802 473.452, 756.903 473.464, 759.825 471.750 C 762.445 470.213, 766.019 469.984, 789.154 469.868 C 803.644 469.796, 820.675 469.424, 827 469.041 C 836.453 468.470, 833.782 468.310, 812 468.147 C 780.346 467.909, 761.848 467.096, 760.550 465.886 C 758.889 464.337, 755.107 464.931, 754.050 466.907" stroke="none" fill="#D9AD50" fill-rule="evenodd"/>
      <path id="gold-tone-4" d="M 528 37.562 C 528 38.409, 529.662 39.797, 531.694 40.645 C 536.980 42.854, 546.258 49.344, 554.884 56.867 C 561.498 62.635, 564.221 65.363, 571.380 73.392 C 574.017 76.349, 581.325 87.776, 583.469 92.293 C 584.455 94.371, 585.438 95.896, 585.652 95.681 C 586.379 94.954, 581.523 85.539, 576.627 78.183 C 573.948 74.158, 568.099 67.227, 563.628 62.780 C 554.902 54.100, 545.486 46.724, 534.724 40.137 C 529.784 37.113, 528 36.430, 528 37.562 M 530.978 46.443 C 532.107 49.411, 533.032 57.012, 533.456 66.803 C 533.631 70.820, 534.109 74.420, 534.518 74.803 C 534.928 75.186, 535.015 69.875, 534.710 63 C 534.178 50.993, 532.786 44, 530.927 44 C 530.438 44, 530.460 45.081, 530.978 46.443 M 506 62.772 C 499.681 63.334, 483.636 67.053, 476.500 69.610 C 468.438 72.497, 456.734 78.668, 449.500 83.845 C 441.441 89.612, 430.211 100.923, 424.527 109 C 416.367 120.594, 411.435 131.371, 405.990 149.500 C 402.998 159.464, 401.996 184.196, 404.066 197 C 406.955 214.877, 414.720 233.703, 425.529 249.042 C 428.580 253.371, 434.772 260.565, 439.288 265.027 C 451.766 277.356, 468.682 287.870, 484 292.818 C 491.785 295.333, 506.756 297.998, 513 297.981 C 518.993 297.965, 529.043 295.539, 530.113 293.851 C 530.584 293.108, 530.976 291.797, 530.985 290.937 C 530.998 289.612, 529.288 289.373, 519.750 289.367 C 513.563 289.363, 505.800 288.800, 502.500 288.116 C 487.026 284.907, 470.930 277.812, 459.168 269.015 C 449.759 261.978, 436.804 248.667, 431.053 240.130 C 425.270 231.544, 417.627 215.174, 415.120 206 C 413.992 201.875, 412.517 193.468, 411.842 187.317 C 410.881 178.570, 410.874 173.377, 411.807 163.478 C 412.677 154.248, 413.850 148.343, 416.144 141.661 C 423.454 120.362, 434.786 103.048, 448.972 91.500 C 452.350 88.750, 456.326 85.488, 457.807 84.251 C 459.288 83.014, 460.785 82.002, 461.133 82.001 C 461.482 82.001, 462.018 81.041, 462.324 79.868 C 462.742 78.271, 463.418 77.876, 465.020 78.295 C 466.594 78.707, 467.014 78.478, 466.610 77.427 C 466.309 76.642, 466.461 76, 466.948 76 C 467.435 76, 467.983 76.437, 468.167 76.971 C 468.359 77.530, 469.558 77.336, 471 76.510 C 472.375 75.723, 474.175 74.751, 475 74.351 C 475.825 73.951, 476.997 72.960, 477.605 72.149 C 478.231 71.315, 479.424 70.949, 480.355 71.306 C 481.260 71.653, 482 71.506, 482 70.980 C 482 70.453, 483.012 70.063, 484.250 70.113 C 485.488 70.162, 489.118 69.213, 492.318 68.003 C 495.518 66.793, 498.402 66.069, 498.726 66.393 C 499.051 66.717, 499.810 66.573, 500.413 66.072 C 501.017 65.571, 505.218 65.012, 509.749 64.831 C 514.653 64.634, 517.854 64.095, 517.659 63.500 C 517.329 62.495, 512.501 62.193, 506 62.772 M 532.281 80.241 C 531.095 84.686, 531.457 86.472, 533.039 83.971 C 533.873 82.652, 534.430 76, 533.707 76 C 533.545 76, 532.904 77.909, 532.281 80.241 M 531 88 C 531 88.733, 531.300 89.033, 531.667 88.667 C 532.033 88.300, 532.033 87.700, 531.667 87.333 C 531.300 86.967, 531 87.267, 531 88 M 526.333 90.667 C 526.700 91.033, 527.300 91.033, 527.667 90.667 C 528.033 90.300, 527.733 90, 527 90 C 526.267 90, 525.967 90.300, 526.333 90.667 M 528.700 94.296 C 527.145 97.926, 526.761 98.258, 525.888 96.729 C 525.332 95.755, 524.459 95.216, 523.949 95.532 C 523.438 95.847, 523.911 97.061, 525 98.230 C 526.088 99.398, 526.734 100.599, 526.435 100.898 C 526.136 101.197, 525.462 100.780, 524.938 99.971 C 524.143 98.743, 523.669 98.909, 522.071 100.972 C 521.018 102.332, 520.349 103.756, 520.584 104.137 C 520.820 104.518, 520.447 105.031, 519.756 105.278 C 519.065 105.524, 518.816 106.066, 519.202 106.482 C 520.171 107.525, 522.757 104.772, 522.247 103.241 C 522.019 102.558, 522.582 102, 523.496 102 C 524.848 102, 525.029 102.607, 524.463 105.250 C 524.080 107.037, 524.017 108.265, 524.322 107.978 C 525.347 107.015, 531.125 91.875, 530.811 90.978 C 530.640 90.491, 529.690 91.984, 528.700 94.296 M 587 100 C 587 100.733, 587.300 101.033, 587.667 100.667 C 588.033 100.300, 588.033 99.700, 587.667 99.333 C 587.300 98.967, 587 99.267, 587 100 M 604.500 104.989 C 600.100 105.989, 594.153 107.739, 591.286 108.876 C 584.730 111.474, 576.407 116.188, 572.500 119.516 C 570.153 121.514, 570.698 121.341, 575 118.717 C 581.922 114.496, 595.966 108.504, 603.591 106.518 C 607.209 105.576, 613.797 105.008, 620.960 105.022 C 630.382 105.040, 633.326 105.417, 637 107.075 C 640.654 108.724, 641.191 108.794, 639.858 107.447 C 637.544 105.109, 627.756 103.019, 619.500 103.100 C 615.650 103.138, 608.900 103.988, 604.500 104.989 M 457 106.535 C 457 106.830, 457.669 108.091, 458.486 109.339 C 461.131 113.376, 463.867 122.800, 464.114 128.723 C 464.246 131.900, 464.004 136.525, 463.575 139 C 462.289 146.430, 457.491 155.049, 450.081 163.242 C 446.230 167.500, 442.611 171.858, 442.039 172.926 C 440.274 176.226, 440.824 180.915, 443.263 183.354 C 444.508 184.599, 447.883 186.900, 450.763 188.468 C 453.643 190.035, 456 191.779, 456 192.343 C 456 192.907, 455.081 195.268, 453.957 197.589 C 451.431 202.806, 452.146 206.507, 456.070 208.536 C 458.892 209.996, 458.898 210.017, 457.203 213.049 L 455.500 216.095 459.803 219.798 L 464.106 223.501 462.455 227.453 C 460.536 232.047, 461.047 237.278, 463.707 240.254 C 466.158 242.995, 471.872 246.508, 475.500 247.503 C 477.150 247.955, 485.025 248.395, 493 248.481 C 505.948 248.619, 507.982 248.880, 512 250.922 C 514.475 252.180, 518.413 255.056, 520.750 257.313 C 523.087 259.570, 525 260.874, 525 260.211 C 525 257.756, 517.434 250.743, 511.618 247.807 C 506.865 245.408, 503.523 244.577, 495.558 243.814 C 490.026 243.284, 482.800 242.355, 479.500 241.749 C 474.945 240.913, 472.717 239.872, 470.250 237.424 C 468.462 235.651, 467 233.535, 467 232.722 C 467 231.909, 467.675 229.629, 468.500 227.654 C 469.325 225.680, 470 223.210, 470 222.165 C 470 221.057, 468.333 219.163, 466 217.619 C 463.800 216.163, 462 214.518, 462 213.964 C 462 213.410, 463.125 212.517, 464.500 211.979 C 473.176 208.582, 472.671 208.964, 470.549 207.412 C 469.487 206.635, 466.936 206, 464.880 206 C 461.123 206, 458 203.983, 458 201.556 C 458 200.840, 458.919 198.177, 460.042 195.639 C 461.597 192.123, 461.834 190.558, 461.036 189.068 C 460.460 187.992, 457.283 185.669, 453.976 183.907 C 446.593 179.971, 445.561 177.440, 449.421 172.731 C 462.509 156.763, 466.810 148.661, 467.674 138.344 C 467.998 134.470, 467.727 128.999, 467.050 125.737 C 465.777 119.607, 459.490 106, 457.931 106 C 457.419 106, 457 106.241, 457 106.535 M 516.207 111.041 C 515.506 112.163, 515.199 113.513, 515.525 114.041 C 515.851 114.568, 515.724 115, 515.243 115 C 514.150 115, 510.767 123.292, 508.105 132.500 C 504.577 144.699, 503.717 153.431, 504.311 171 C 504.755 184.096, 505.409 189.666, 507.484 198 C 510.756 211.138, 513.554 218.264, 521.537 233.787 C 525.012 240.545, 529.325 250.220, 531.121 255.287 L 534.387 264.500 534.438 286 C 534.485 305.698, 534.308 307.982, 532.321 313.250 C 531.128 316.413, 530.577 319, 531.098 319 C 532.603 319, 537.921 309.973, 539.641 304.500 C 540.731 301.032, 541.457 292.757, 542.008 277.500 C 542.471 264.674, 543.468 252.164, 544.400 247.500 C 545.278 243.100, 547.433 235.272, 549.187 230.104 C 554 215.930, 565.118 198.517, 574.925 189.792 C 577.666 187.353, 578.999 185.543, 578.250 185.277 C 575.898 184.442, 576.997 183.385, 580 183.593 C 583.434 183.831, 584.024 182.460, 580.913 181.472 L 578.827 180.810 580.926 178.854 C 583.155 176.778, 585.500 177.255, 584.600 179.601 C 583.955 181.281, 585.584 181.483, 586.594 179.848 C 586.985 179.215, 586.525 178.126, 585.570 177.428 C 583.943 176.238, 583.960 176.092, 585.852 175.079 C 588.838 173.481, 589.876 173.759, 589.290 176 C 589.002 177.100, 589.219 178, 589.772 178 C 590.325 178, 590.757 177.438, 590.731 176.750 C 590.591 172.976, 591.362 171.929, 595.750 169.932 C 605.288 165.593, 612.633 162.875, 618.500 161.516 C 621.800 160.752, 626.300 159.647, 628.500 159.061 C 630.700 158.475, 637.154 158.053, 642.843 158.124 C 652.629 158.246, 657.247 158.840, 661.250 160.492 C 662.460 160.991, 663 160.751, 663 159.714 C 663 158.889, 662.212 157.888, 661.250 157.489 C 657.863 156.086, 640.097 155.755, 631.846 156.941 C 607.808 160.396, 584.378 171.274, 568.204 186.490 C 553.099 200.700, 541.914 221.390, 537.544 243.208 C 536.695 247.447, 536 251.186, 536 251.517 C 536 251.848, 535.601 251.871, 535.113 251.570 C 534.626 251.269, 533.916 249.364, 533.535 247.337 C 533.155 245.310, 529.769 236.643, 526.010 228.076 C 522.251 219.509, 518.037 208.845, 516.645 204.379 C 513.666 194.819, 511 176.962, 511 166.565 C 511 156.399, 514.190 138.686, 518.489 124.985 C 520.471 118.668, 522.522 112.719, 523.046 111.764 C 524.344 109.401, 524.256 109, 522.441 109 C 521.584 109, 521.119 109.384, 521.409 109.853 C 522.214 111.156, 519.724 117, 518.364 117 C 517.706 117, 516.966 117.563, 516.720 118.250 C 516.475 118.938, 515.915 119.165, 515.477 118.756 C 515.038 118.347, 515.658 117.164, 516.854 116.126 C 518.192 114.966, 518.790 113.616, 518.408 112.620 C 518.054 111.697, 518.288 111, 518.952 111 C 519.593 111, 519.840 110.550, 519.500 110 C 518.565 108.487, 517.614 108.787, 516.207 111.041 M 626 114 C 624.625 115.076, 623.993 115.966, 624.595 115.978 C 625.197 115.990, 626.505 115.100, 627.500 114 C 628.495 112.900, 629.128 112.010, 628.905 112.022 C 628.682 112.034, 627.375 112.924, 626 114 M 621.405 119.155 C 620.962 119.870, 621.130 120.038, 621.845 119.595 C 622.998 118.883, 623.393 118, 622.559 118 C 622.316 118, 621.797 118.520, 621.405 119.155 M 515.510 121.016 C 515.856 121.575, 516.557 121.774, 517.069 121.457 C 518.456 120.600, 518.198 120, 516.441 120 C 515.584 120, 515.165 120.457, 515.510 121.016 M 513 123 C 513 123.550, 513.477 124, 514.059 124 C 514.641 124, 514.797 124.520, 514.405 125.155 C 513.952 125.886, 514.131 126.037, 514.894 125.565 C 515.815 124.996, 515.823 124.491, 514.926 123.411 C 513.544 121.746, 513 121.629, 513 123 M 565.985 124.046 C 564.618 125.096, 563.950 125.951, 564.500 125.946 C 565.823 125.933, 569.478 123.144, 568.912 122.579 C 568.669 122.336, 567.352 122.996, 565.985 124.046 M 561.500 128 C 561.160 128.550, 561.359 129, 561.941 129 C 562.523 129, 563 128.550, 563 128 C 563 127.450, 562.802 127, 562.559 127 C 562.316 127, 561.840 127.450, 561.500 128 M 555.434 133.702 C 554.442 134.691, 551.126 138.877, 548.065 143.003 C 542.150 150.979, 536.046 161.990, 534.005 168.369 C 532.985 171.555, 533.008 172.390, 534.133 173.104 C 535.219 173.792, 535.157 173.973, 533.828 173.985 C 532.825 173.994, 531.743 175.302, 531.126 177.250 C 529.608 182.046, 528.164 191.348, 527.400 201.250 C 526.916 207.517, 527.048 210, 527.862 210 C 528.488 210, 529.016 208.762, 529.035 207.250 C 529.073 204.313, 530.728 196.441, 533.463 186.191 C 535.477 178.642, 543.810 159.480, 547.069 154.903 C 548.348 153.108, 548.855 151.972, 548.197 152.378 C 547.467 152.829, 547 152.522, 547 151.590 C 547 150.718, 547.580 150.285, 548.352 150.582 C 549.842 151.154, 553 147, 553 144.468 C 553 143.271, 552.442 143.042, 550.797 143.565 C 548.759 144.211, 548.716 144.141, 550.225 142.632 C 551.123 141.734, 552.377 141, 553.012 141 C 553.647 141, 553.960 140.438, 553.708 139.750 C 553.456 139.063, 554.398 137.267, 555.802 135.760 C 558.632 132.723, 558.297 130.850, 555.434 133.702 M 509 138 C 509 138.733, 509.300 139.033, 509.667 138.667 C 510.033 138.300, 510.033 137.700, 509.667 137.333 C 509.300 136.967, 509 137.267, 509 138 M 508.500 143 C 508.160 143.550, 508.359 144, 508.941 144 C 509.523 144, 510 143.550, 510 143 C 510 142.450, 509.802 142, 509.559 142 C 509.316 142, 508.840 142.450, 508.500 143 M 549 147.122 C 549 148.889, 549.250 149.038, 550.489 148.009 C 551.994 146.760, 551.673 145, 549.941 145 C 549.423 145, 549 145.955, 549 147.122 M 615.480 147.980 C 615.708 151.068, 617 151.652, 617 148.667 C 617 147.200, 616.625 146, 616.167 146 C 615.709 146, 615.400 146.891, 615.480 147.980 M 508 149 C 508 149.733, 508.300 150.033, 508.667 149.667 C 509.033 149.300, 509.033 148.700, 508.667 148.333 C 508.300 147.967, 508 148.267, 508 149 M 546.333 148.667 C 546.700 149.033, 547.300 149.033, 547.667 148.667 C 548.033 148.300, 547.733 148, 547 148 C 546.267 148, 545.967 148.300, 546.333 148.667 M 543 153.531 C 543 155.149, 544.563 155.517, 545.435 154.105 C 545.740 153.612, 545.316 152.952, 544.494 152.636 C 543.587 152.288, 543 152.639, 543 153.531 M 543 157 C 543 157.733, 543.300 158.033, 543.667 157.667 C 544.033 157.300, 544.033 156.700, 543.667 156.333 C 543.300 155.967, 543 156.267, 543 157 M 538 164 C 538 164.550, 538.450 165, 539 165 C 539.550 165, 540 164.550, 540 164 C 540 163.450, 539.550 163, 539 163 C 538.450 163, 538 163.450, 538 164 M 658 165 C 658 165.733, 658.300 166.033, 658.667 165.667 C 659.033 165.300, 659.033 164.700, 658.667 164.333 C 658.300 163.967, 658 164.267, 658 165 M 608.750 166.662 C 609.438 166.940, 610.563 166.940, 611.250 166.662 C 611.938 166.385, 611.375 166.158, 610 166.158 C 608.625 166.158, 608.063 166.385, 608.750 166.662 M 535 168 C 535 168.550, 535.675 169, 536.500 169 C 537.325 169, 538 168.550, 538 168 C 538 167.450, 537.325 167, 536.500 167 C 535.675 167, 535 167.450, 535 168 M 602 169 C 602 169.733, 602.300 170.033, 602.667 169.667 C 603.033 169.300, 603.033 168.700, 602.667 168.333 C 602.300 167.967, 602 168.267, 602 169 M 655.564 169.707 C 655.022 171.132, 655.136 171.247, 656.124 170.267 C 656.808 169.588, 657.115 168.781, 656.807 168.474 C 656.499 168.166, 655.940 168.721, 655.564 169.707 M 652.583 173.866 C 652.152 174.563, 652.070 175.403, 652.400 175.733 C 653.295 176.628, 654.271 175.312, 653.787 173.862 C 653.449 172.846, 653.213 172.846, 652.583 173.866 M 647.813 176.683 C 648.534 176.972, 649.397 176.936, 649.729 176.604 C 650.061 176.272, 649.471 176.036, 648.417 176.079 C 647.252 176.127, 647.015 176.364, 647.813 176.683 M 650.325 180.596 C 649.882 181.750, 648.921 182.034, 646.856 181.621 C 643.630 180.976, 642.925 182.524, 646 183.500 C 647.100 183.849, 648 184.554, 648 185.067 C 648 185.580, 648.340 186, 648.755 186 C 649.171 186, 650.004 184.425, 650.606 182.500 C 651.699 179.008, 651.486 177.569, 650.325 180.596 M 614.447 189.750 C 614.015 193.463, 613.756 197.232, 613.873 198.127 C 613.989 199.022, 613.398 200.017, 612.559 200.339 C 611.632 200.695, 611.280 201.567, 611.663 202.563 C 612.016 203.484, 611.680 204.589, 610.896 205.086 C 609.780 205.792, 609.853 205.972, 611.258 205.985 C 612.766 205.998, 612.839 206.285, 611.768 208 C 611.081 209.100, 609.981 210, 609.324 210 C 608.666 210, 606.702 212.813, 604.958 216.250 C 599.134 227.730, 590.818 239.417, 582.187 248.251 C 573.585 257.055, 562.084 265.813, 555.532 268.551 C 551.290 270.323, 550.713 272.531, 554.750 271.546 C 559.737 270.328, 568.157 266.064, 574.478 261.553 C 583.177 255.346, 594.623 243.665, 600.293 235.209 C 607.956 223.781, 613.267 210.895, 615.958 197.201 C 617.231 190.726, 617.317 183, 616.116 183 C 615.631 183, 614.879 186.037, 614.447 189.750 M 572 186 C 572 186.733, 572.300 187.033, 572.667 186.667 C 573.033 186.300, 573.033 185.700, 572.667 185.333 C 572.300 184.967, 572 185.267, 572 186 M 643.813 186.683 C 644.534 186.972, 645.397 186.936, 645.729 186.604 C 646.061 186.272, 645.471 186.036, 644.417 186.079 C 643.252 186.127, 643.015 186.364, 643.813 186.683 M 647.667 187.667 C 647.300 188.033, 647.014 189.046, 647.030 189.917 C 647.055 191.217, 647.251 191.174, 648.122 189.675 C 649.199 187.823, 648.887 186.447, 647.667 187.667 M 642 192 C 643.939 193.253, 645 193.253, 645 192 C 645 191.450, 643.987 191.007, 642.750 191.015 C 640.931 191.028, 640.787 191.216, 642 192 M 645.684 193.382 C 645.308 194.362, 645.029 195.914, 645.063 196.832 C 645.105 197.937, 645.453 197.685, 646.092 196.086 C 646.623 194.758, 646.902 193.206, 646.712 192.636 C 646.522 192.067, 646.059 192.403, 645.684 193.382 M 564 194.941 C 564 197.356, 564.556 197.599, 565.349 195.532 C 565.659 194.725, 565.482 193.798, 564.956 193.473 C 564.430 193.148, 564 193.809, 564 194.941 M 567.333 193.667 C 567.700 194.033, 568.300 194.033, 568.667 193.667 C 569.033 193.300, 568.733 193, 568 193 C 567.267 193, 566.967 193.300, 567.333 193.667 M 638.063 200.250 C 637.371 202.588, 636.399 205.281, 635.903 206.236 C 634.665 208.617, 634.756 209, 636.559 209 C 637.416 209, 637.864 209.412, 637.553 209.915 C 637.242 210.418, 637.553 211.057, 638.244 211.336 C 639.143 211.698, 639.161 211.865, 638.309 211.921 C 637.654 211.964, 636.840 211.550, 636.500 211 C 635.580 209.512, 634.295 209.788, 633.590 211.627 C 633.218 212.595, 633.681 213.797, 634.733 214.595 C 636.380 215.846, 636.350 215.939, 634.285 215.968 C 632.525 215.993, 631.021 217.946, 626.965 225.470 C 624.157 230.678, 619.855 237.541, 617.405 240.720 C 609.902 250.456, 597.928 261.874, 589.095 267.715 C 579.424 274.110, 568.937 279.192, 557.500 283.026 C 553.032 284.524, 549.500 286.276, 549.500 286.995 C 549.500 287.703, 550.286 288.778, 551.246 289.384 C 552.575 290.222, 555.047 289.954, 561.586 288.264 C 578.057 284.006, 597.012 273.079, 610.340 260.161 C 617.158 253.552, 628.013 238.687, 633.826 228 C 637.339 221.542, 645 202.429, 645 200.124 C 645 199.696, 643.538 199.546, 641.750 199.790 C 639.088 200.152, 638.726 199.994, 639.750 198.916 C 641.187 197.403, 641.385 196, 640.160 196 C 639.698 196, 638.754 197.912, 638.063 200.250 M 639 206 C 639 206.550, 639.477 207, 640.059 207 C 640.641 207, 640.840 206.550, 640.500 206 C 640.160 205.450, 639.684 205, 639.441 205 C 639.198 205, 639 205.450, 639 206 M 608 214 C 608 214.550, 608.450 215, 609 215 C 609.550 215, 610 214.550, 610 214 C 610 213.450, 609.550 213, 609 213 C 608.450 213, 608 213.450, 608 214 M 270.559 466.506 C 268.933 467.757, 262.925 468.029, 233.559 468.181 C 204.144 468.332, 201.076 468.471, 214.500 469.045 C 223.300 469.421, 239.403 469.790, 250.285 469.865 C 266.670 469.977, 270.495 470.278, 272.540 471.618 C 274.570 472.948, 275.286 473.008, 276.556 471.954 C 277.414 471.242, 277.967 469.522, 277.801 468.086 C 277.576 466.157, 276.865 465.438, 275 465.256 C 273.625 465.123, 271.626 465.685, 270.559 466.506 M 755.200 466.200 C 753.420 467.980, 753.745 470.793, 755.862 471.926 C 757.201 472.643, 758.253 472.522, 759.612 471.493 C 761.043 470.409, 765.372 470.025, 777.500 469.904 C 786.300 469.816, 801.825 469.433, 812 469.052 C 829.485 468.398, 828.702 468.350, 797.718 468.180 C 771.146 468.034, 764.256 467.716, 761.346 466.500 C 759.371 465.675, 757.451 465, 757.078 465 C 756.705 465, 755.860 465.540, 755.200 466.200" stroke="none" fill="#CB953A" fill-rule="evenodd"/>
      <path id="gold-tone-5" d="M 528 37.393 C 528 37.609, 528.698 38.054, 529.552 38.382 C 530.442 38.723, 530.843 38.555, 530.493 37.989 C 529.906 37.038, 528 36.583, 528 37.393 M 488 66.906 C 488 67.405, 488.900 67.577, 490 67.290 C 491.100 67.002, 492 66.594, 492 66.383 C 492 66.173, 491.100 66, 490 66 C 488.900 66, 488 66.408, 488 66.906 M 476.333 70.667 C 476.700 71.033, 477.300 71.033, 477.667 70.667 C 478.033 70.300, 477.733 70, 477 70 C 476.267 70, 475.967 70.300, 476.333 70.667 M 473.333 71.667 C 473.700 72.033, 474.300 72.033, 474.667 71.667 C 475.033 71.300, 474.733 71, 474 71 C 473.267 71, 472.967 71.300, 473.333 71.667 M 454.500 81 C 454.160 81.550, 454.332 82, 454.882 82 C 455.432 82, 456.160 81.550, 456.500 81 C 456.840 80.450, 456.668 80, 456.118 80 C 455.568 80, 454.840 80.450, 454.500 81 M 443.877 89.076 C 436.550 94.909, 435.348 96, 436.248 96 C 436.605 96, 439.732 93.680, 443.198 90.845 C 451.120 84.364, 451.526 84, 450.827 84 C 450.513 84, 447.385 86.284, 443.877 89.076 M 432.333 100.667 C 432.700 101.033, 433.300 101.033, 433.667 100.667 C 434.033 100.300, 433.733 100, 433 100 C 432.267 100, 431.967 100.300, 432.333 100.667 M 428.071 104.415 C 427.325 105.313, 427.012 106.345, 427.374 106.707 C 428.308 107.641, 430.306 105.417, 429.826 103.978 C 429.550 103.150, 429.008 103.285, 428.071 104.415 M 610.333 104.667 C 610.700 105.033, 611.300 105.033, 611.667 104.667 C 612.033 104.300, 611.733 104, 611 104 C 610.267 104, 609.967 104.300, 610.333 104.667 M 629.333 104.667 C 629.700 105.033, 630.300 105.033, 630.667 104.667 C 631.033 104.300, 630.733 104, 630 104 C 629.267 104, 628.967 104.300, 629.333 104.667 M 459.895 111.500 C 461.491 114.800, 463.287 119.326, 463.885 121.557 C 465.295 126.813, 465.926 139, 464.788 139 C 464.305 139, 464.205 140.575, 464.566 142.500 C 465.087 145.279, 464.903 146, 463.670 146 C 462.817 146, 461.843 146.445, 461.507 146.989 C 461.148 147.570, 461.583 147.714, 462.563 147.337 C 463.925 146.815, 464.112 147.138, 463.584 149.099 C 463.226 150.426, 463.907 149.724, 465.105 147.531 C 466.876 144.287, 467.272 141.910, 467.271 134.531 C 467.270 126.622, 466.868 124.536, 464.038 117.741 C 462.260 113.473, 459.948 108.973, 458.899 107.741 C 457.581 106.192, 457.889 107.353, 459.895 111.500 M 429 110.559 C 429 111.416, 429.450 111.840, 430 111.500 C 430.550 111.160, 431 110.459, 431 109.941 C 431 109.423, 430.550 109, 430 109 C 429.450 109, 429 109.702, 429 110.559 M 421.185 114.750 C 416.651 121.875, 414.428 127.014, 415.537 127.809 C 416.066 128.189, 416.658 129.398, 416.850 130.496 C 417.191 132.438, 417.147 132.443, 415.172 130.656 C 413.175 128.849, 413.127 128.879, 412.091 132.631 C 411.234 135.736, 411.313 136.596, 412.520 137.271 C 413.334 137.727, 414 138.963, 414 140.018 C 414 141.313, 413.512 141.750, 412.500 141.362 C 411.675 141.045, 410.986 140.047, 410.970 139.143 C 410.943 137.690, 410.821 137.703, 409.915 139.258 C 409.352 140.225, 409.168 141.462, 409.505 142.008 C 409.842 142.554, 409.641 143, 409.059 143 C 407.599 143, 407.727 146.305, 409.250 147.947 C 410.270 149.047, 410.180 149.182, 408.760 148.682 C 407.453 148.223, 406.871 148.745, 406.420 150.785 C 406.090 152.278, 405.309 155.075, 404.683 157 C 404.026 159.023, 403.537 167.461, 403.523 177 C 403.504 190.724, 403.895 195.266, 405.847 204 C 408.444 215.615, 413.015 227.758, 418.444 237.466 C 426.800 252.408, 441.769 269.106, 454.506 277.694 C 468.408 287.067, 483.559 293.472, 498 296.081 C 506.729 297.658, 520.633 297.672, 525.258 296.110 C 528.703 294.945, 531 292.572, 531 290.176 C 531 289.604, 527.634 289.431, 522.594 289.746 C 512.771 290.359, 498.295 288.097, 487.500 284.264 C 470.435 278.204, 453.644 267.077, 441.438 253.738 C 435.061 246.770, 426.779 234.581, 422.252 225.500 C 417.701 216.373, 414.230 205.386, 412.429 194.413 C 411.225 187.076, 410.942 180.862, 411.340 170.500 C 411.636 162.800, 412.565 153.424, 413.404 149.664 C 415.191 141.668, 418.798 132.302, 423.865 122.500 C 425.855 118.650, 427.637 115.162, 427.825 114.750 C 428.013 114.338, 427.271 114, 426.177 114 C 424.631 114, 424.313 114.481, 424.751 116.156 C 425.138 117.634, 424.951 118.088, 424.158 117.597 C 422.325 116.465, 422.804 113.984, 425.250 111.944 C 427.058 110.435, 427.177 110.060, 425.854 110.033 C 424.949 110.015, 422.848 112.138, 421.185 114.750 M 417.500 125 C 417.840 125.550, 418.541 126, 419.059 126 C 419.577 126, 420 125.550, 420 125 C 420 124.450, 419.298 124, 418.441 124 C 417.584 124, 417.160 124.450, 417.500 125 M 410 145 C 410 145.550, 410.450 146, 411 146 C 411.550 146, 412 145.550, 412 145 C 412 144.450, 411.550 144, 411 144 C 410.450 144, 410 144.450, 410 145 M 505 150.500 C 505 151.325, 505.477 152, 506.059 152 C 506.641 152, 506.859 152.419, 506.543 152.931 C 505.958 153.878, 507.782 155.551, 508.556 154.777 C 509.159 154.174, 506.651 149.017, 505.750 149.008 C 505.337 149.004, 505 149.675, 505 150.500 M 510.405 151.155 C 509.962 151.870, 510.130 152.038, 510.845 151.595 C 511.480 151.203, 512 150.684, 512 150.441 C 512 149.607, 511.117 150.002, 510.405 151.155 M 407.500 153 C 407.840 153.550, 408.316 154, 408.559 154 C 408.802 154, 409 153.550, 409 153 C 409 152.450, 408.523 152, 407.941 152 C 407.359 152, 407.160 152.450, 407.500 153 M 459.667 155.667 C 458.711 156.622, 458.845 158, 459.893 158 C 460.384 158, 461.045 157.325, 461.362 156.500 C 461.947 154.976, 460.881 154.452, 459.667 155.667 M 505 156 C 505 156.733, 505.300 157.033, 505.667 156.667 C 506.033 156.300, 506.033 155.700, 505.667 155.333 C 505.300 154.967, 505 155.267, 505 156 M 510.054 155.500 C 509.894 156.050, 509.846 156.925, 509.946 157.445 C 510.047 157.964, 509.559 159.455, 508.862 160.758 C 508.036 162.301, 506.968 162.963, 505.797 162.657 C 504.365 162.283, 504 162.792, 504 165.165 C 504 167.872, 504.143 168, 505.571 166.571 C 506.436 165.707, 507.561 165, 508.071 165 C 509.669 165, 509.085 166.753, 507.250 167.464 C 505.593 168.107, 505.595 168.213, 507.296 169.465 C 508.595 170.422, 508.911 171.507, 508.437 173.394 C 508.078 174.827, 507.044 176.045, 506.142 176.100 C 505.223 176.155, 505.601 176.525, 507 176.938 C 508.375 177.345, 509.422 178.096, 509.327 178.607 C 509.232 179.119, 508.846 180.766, 508.469 182.269 C 508.052 183.928, 508.190 185, 508.820 185 C 509.390 185, 510.194 187.588, 510.608 190.750 C 511.709 199.171, 511.672 200.264, 510.196 202.825 C 508.995 204.909, 509.063 205.204, 510.859 205.673 C 513.266 206.303, 514.535 209.051, 512.888 210.069 C 511.419 210.977, 512.502 214.113, 514.163 213.759 C 514.833 213.617, 515.572 214.386, 515.806 215.468 C 516.174 217.172, 516.015 217.258, 514.628 216.107 C 513.189 214.912, 513.132 215.080, 514.064 217.755 C 514.635 219.393, 515.901 221.590, 516.877 222.638 C 517.854 223.686, 518.468 225.096, 518.243 225.772 C 517.981 226.556, 518.424 226.775, 519.464 226.375 C 521.420 225.625, 523.974 228.608, 523.852 231.500 C 523.782 233.173, 523.693 233.214, 523.311 231.750 C 523.059 230.787, 522.211 230, 521.427 230 C 520.642 230, 520 229.475, 520 228.833 C 520 228.192, 519.711 227.956, 519.357 228.309 C 519.004 228.663, 519.324 229.686, 520.068 230.582 C 520.813 231.479, 521.926 233.178, 522.543 234.357 C 523.159 235.535, 524.189 236.388, 524.832 236.250 C 526.023 235.995, 526.370 237.130, 526.052 240.250 C 525.942 241.334, 526.564 242.006, 527.687 242.015 C 529.223 242.028, 529.271 242.179, 528 243 C 527.051 243.613, 526.948 243.975, 527.719 243.985 C 528.389 243.993, 528.700 244.617, 528.411 245.371 C 528.122 246.125, 528.510 247.367, 529.273 248.130 C 530.036 248.893, 530.470 250.091, 530.236 250.793 C 530.002 251.494, 530.234 252.615, 530.750 253.284 C 531.267 253.953, 532.322 256.750, 533.095 259.500 C 534.103 263.088, 534.500 270.573, 534.500 286 C 534.500 304.347, 534.228 308.279, 532.648 312.815 C 531.630 315.738, 531.034 318.367, 531.325 318.658 C 532.164 319.497, 537.867 308.996, 539.557 303.500 C 540.619 300.049, 541.263 292.302, 541.635 278.500 C 542.223 256.702, 544.254 242.524, 548.512 230.500 C 549.876 226.650, 550.993 222.938, 550.996 222.250 C 550.998 221.563, 550.325 221, 549.500 221 C 548.675 221, 548 220.501, 548 219.892 C 548 219.228, 548.942 219.020, 550.348 219.373 C 552.174 219.831, 552.942 219.423, 553.800 217.541 C 554.817 215.307, 554.680 215.095, 552.021 214.810 C 549.357 214.523, 549.248 214.353, 550.570 212.559 C 551.985 210.638, 552.015 210.638, 553.418 212.557 C 554.198 213.624, 555.198 214.136, 555.639 213.694 C 556.081 213.253, 555.780 212.473, 554.971 211.961 C 553.809 211.226, 553.973 211.027, 555.750 211.015 C 556.987 211.007, 558 210.658, 558 210.240 C 558 209.823, 556.538 209.485, 554.750 209.490 C 552.442 209.497, 551.009 210.207, 549.807 211.938 C 548.876 213.278, 548.340 214.741, 548.616 215.188 C 548.892 215.634, 548.651 216, 548.079 216 C 547.508 216, 546.193 217.688, 545.156 219.750 C 542.406 225.223, 538.721 237.831, 539.375 239.534 C 539.684 240.340, 539.534 241, 539.041 241 C 538.547 241, 537.834 243.481, 537.455 246.513 C 536.784 251.883, 535.390 254.460, 534.588 251.813 C 531.597 241.950, 530.020 237.793, 525.552 228 C 519.660 215.085, 515.836 204.088, 513.380 193 C 512.467 188.875, 511.410 178.525, 511.032 170 C 510.654 161.475, 510.214 154.950, 510.054 155.500 M 454.728 158.250 C 453.902 159.488, 451.317 162.525, 448.984 165 C 443.478 170.842, 441.008 174.884, 441.004 178.063 C 440.999 181.117, 444.760 184.907, 450.799 187.935 C 453.163 189.121, 455.364 190.786, 455.691 191.636 C 456.017 192.486, 455.545 194.731, 454.642 196.625 C 453.739 198.518, 453 201.418, 453 203.068 C 453 205.444, 453.738 206.503, 456.551 208.162 L 460.101 210.257 458.051 212.168 C 456.923 213.218, 456 214.510, 456 215.039 C 456 216.211, 458.701 218.949, 461.961 221.082 L 464.379 222.664 462.631 228.223 C 461.082 233.147, 461.045 234.166, 462.303 237.141 C 464.045 241.260, 466.373 243.403, 471.537 245.643 C 474.482 246.921, 479.611 247.516, 491.500 247.957 C 505.395 248.473, 508.118 248.852, 512.196 250.839 C 514.779 252.097, 518.717 255.006, 520.946 257.303 C 523.176 259.600, 525 260.910, 525 260.213 C 525 257.854, 516.406 250.337, 510.531 247.558 C 505.845 245.341, 502.091 244.542, 491.593 243.528 C 484.392 242.832, 476.614 241.490, 474.309 240.546 C 472.005 239.603, 469.374 237.693, 468.463 236.302 C 466.699 233.611, 466.876 230.689, 469.136 225.164 C 470.428 222.004, 470.363 221.715, 467.894 219.664 C 466.461 218.474, 464.436 216.984, 463.394 216.353 C 461.874 215.433, 461.717 214.843, 462.600 213.367 C 463.205 212.355, 465.343 211.139, 467.350 210.664 C 472.563 209.432, 472.001 207.268, 466.250 206.433 C 463.637 206.054, 460.712 205.336, 459.750 204.837 C 457.557 203.700, 457.512 200.092, 459.635 195.639 C 461.541 191.643, 460.861 187.408, 458.177 186.556 C 457.177 186.239, 454.253 184.644, 451.679 183.012 C 448.043 180.705, 447 179.457, 447 177.411 C 447 175.802, 448.556 172.920, 451 170 C 453.200 167.372, 455 164.962, 455 164.643 C 455 164.324, 454.325 164.322, 453.500 164.638 C 452.674 164.955, 452 164.668, 452 163.999 C 452 163.222, 452.849 162.996, 454.348 163.373 C 456.232 163.845, 456.927 163.422, 457.864 161.231 C 458.949 158.696, 458.924 158.639, 457.516 160.441 C 455.793 162.648, 455.455 160.887, 457.035 157.934 C 458.482 155.230, 456.569 155.492, 454.728 158.250 M 630.750 157.662 C 631.438 157.940, 632.563 157.940, 633.250 157.662 C 633.938 157.385, 633.375 157.158, 632 157.158 C 630.625 157.158, 630.063 157.385, 630.750 157.662 M 653.250 157.689 C 654.212 157.941, 655.788 157.941, 656.750 157.689 C 657.712 157.438, 656.925 157.232, 655 157.232 C 653.075 157.232, 652.288 157.438, 653.250 157.689 M 407.500 159 C 407.840 159.550, 408.316 160, 408.559 160 C 408.802 160, 409 159.550, 409 159 C 409 158.450, 408.523 158, 407.941 158 C 407.359 158, 407.160 158.450, 407.500 159 M 504 158.941 C 504 159.459, 504.445 160.157, 504.989 160.493 C 505.555 160.843, 505.723 160.442, 505.382 159.552 C 504.717 157.820, 504 157.503, 504 158.941 M 504 171.500 C 504 172.325, 504.730 173, 505.622 173 C 506.951 173, 507.020 172.729, 506 171.500 C 505.315 170.675, 504.585 170, 504.378 170 C 504.170 170, 504 170.675, 504 171.500 M 535.310 174.492 C 534.656 175.204, 534.431 176.132, 534.810 176.553 C 535.190 176.974, 534.600 176.995, 533.500 176.600 C 531.965 176.049, 531.773 176.156, 532.672 177.063 C 533.316 177.712, 533.606 178.864, 533.315 179.622 C 533.024 180.380, 533.284 181, 533.893 181 C 534.502 181, 535 180.190, 535 179.200 C 535 178.210, 535.501 176.899, 536.112 176.288 C 536.724 175.676, 537.062 174.730, 536.862 174.186 C 536.652 173.612, 536.001 173.740, 535.310 174.492 M 506 181 C 506 181.733, 506.300 182.033, 506.667 181.667 C 507.033 181.300, 507.033 180.700, 506.667 180.333 C 506.300 179.967, 506 180.267, 506 181 M 532.344 183.794 C 532.026 185.007, 531.369 186, 530.883 186 C 530.398 186, 530 187.773, 530 189.941 C 530 192.109, 529.621 194.116, 529.159 194.402 C 528.696 194.688, 528.273 197.977, 528.218 201.711 L 528.118 208.500 529.577 200.500 C 530.380 196.100, 531.750 190.333, 532.620 187.685 C 533.491 185.037, 533.915 182.582, 533.562 182.229 C 533.209 181.876, 532.661 182.580, 532.344 183.794 M 615.333 184.667 C 615.700 185.033, 616.300 185.033, 616.667 184.667 C 617.033 184.300, 616.733 184, 616 184 C 615.267 184, 614.967 184.300, 615.333 184.667 M 506 187.059 C 506 187.641, 506.450 187.840, 507 187.500 C 507.550 187.160, 508 186.684, 508 186.441 C 508 186.198, 507.550 186, 507 186 C 506.450 186, 506 186.477, 506 187.059 M 508.333 191.667 C 508.700 192.033, 509.300 192.033, 509.667 191.667 C 510.033 191.300, 509.733 191, 509 191 C 508.267 191, 507.967 191.300, 508.333 191.667 M 508 196 C 508 196.550, 508.450 197, 509 197 C 509.550 197, 510 196.550, 510 196 C 510 195.450, 509.550 195, 509 195 C 508.450 195, 508 195.450, 508 196 M 509 201.500 C 509 202.325, 509.177 203, 509.393 203 C 509.609 203, 510.045 202.325, 510.362 201.500 C 510.678 200.675, 510.501 200, 509.969 200 C 509.436 200, 509 200.675, 509 201.500 M 556 201 C 556 201.733, 556.300 202.033, 556.667 201.667 C 557.033 201.300, 557.033 200.700, 556.667 200.333 C 556.300 199.967, 556 200.267, 556 201 M 561.333 200.667 C 561.700 201.033, 562.300 201.033, 562.667 200.667 C 563.033 200.300, 562.733 200, 562 200 C 561.267 200, 560.967 200.300, 561.333 200.667 M 553.553 204.915 C 553.231 205.436, 553.394 206.125, 553.915 206.447 C 554.436 206.769, 555.125 206.606, 555.447 206.085 C 555.769 205.564, 555.606 204.875, 555.085 204.553 C 554.564 204.231, 553.875 204.394, 553.553 204.915 M 559.333 205.667 C 559.700 206.033, 560.300 206.033, 560.667 205.667 C 561.033 205.300, 560.733 205, 560 205 C 559.267 205, 558.967 205.300, 559.333 205.667 M 634.500 213 C 634.840 213.550, 635.568 214, 636.118 214 C 636.668 214, 636.840 213.550, 636.500 213 C 636.160 212.450, 635.432 212, 634.882 212 C 634.332 212, 634.160 212.450, 634.500 213 M 551.333 216.667 C 551.700 217.033, 552.300 217.033, 552.667 216.667 C 553.033 216.300, 552.733 216, 552 216 C 551.267 216, 550.967 216.300, 551.333 216.667 M 606.333 220.667 C 606.700 221.033, 607.300 221.033, 607.667 220.667 C 608.033 220.300, 607.733 220, 607 220 C 606.267 220, 605.967 220.300, 606.333 220.667 M 634.813 220.683 C 635.534 220.972, 636.397 220.936, 636.729 220.604 C 637.061 220.272, 636.471 220.036, 635.417 220.079 C 634.252 220.127, 634.015 220.364, 634.813 220.683 M 546.500 224 C 546.160 224.550, 546.359 225, 546.941 225 C 547.523 225, 548 224.550, 548 224 C 548 223.450, 547.802 223, 547.559 223 C 547.316 223, 546.840 223.450, 546.500 224 M 601 225 C 601 225.733, 601.300 226.033, 601.667 225.667 C 602.033 225.300, 602.033 224.700, 601.667 224.333 C 601.300 223.967, 601 224.267, 601 225 M 604 225.559 C 604 226.416, 604.450 226.840, 605 226.500 C 605.550 226.160, 606 225.459, 606 224.941 C 606 224.423, 605.550 224, 605 224 C 604.450 224, 604 224.702, 604 225.559 M 632.564 227.707 C 632.022 229.132, 632.136 229.247, 633.124 228.267 C 633.808 227.588, 634.115 226.781, 633.807 226.474 C 633.499 226.166, 632.940 226.721, 632.564 227.707 M 595.871 233.250 C 594.807 235.248, 594.849 235.354, 596.247 234.201 C 597.324 233.314, 598.030 233.240, 598.480 233.968 C 598.842 234.553, 599.561 234.772, 600.077 234.453 C 600.607 234.125, 600.390 233.248, 599.579 232.436 C 598.789 231.646, 597.902 231, 597.607 231 C 597.312 231, 596.531 232.012, 595.871 233.250 M 593.384 236.858 C 592.898 237.211, 591.618 238.540, 590.540 239.811 C 588.988 241.641, 588.854 242.292, 589.897 242.936 C 590.820 243.507, 590.883 243.954, 590.107 244.434 C 589.498 244.810, 589 244.602, 589 243.972 C 589 243.342, 585.288 246.290, 580.750 250.522 C 572.161 258.533, 564.494 264.196, 557.250 267.880 C 554.913 269.068, 553 270.462, 553 270.976 C 553 272.068, 558.810 270.147, 565.097 266.976 C 572.597 263.194, 582.677 255.161, 590.525 246.714 C 594.659 242.264, 597.895 238.185, 597.716 237.649 C 597.322 236.467, 594.605 235.971, 593.384 236.858 M 621.382 237.552 C 621.709 238.406, 621.563 238.848, 621.058 238.536 C 620.552 238.223, 619.913 238.331, 619.638 238.776 C 619.363 239.221, 620.079 239.656, 621.229 239.742 C 622.379 239.829, 623.650 240.433, 624.053 241.085 C 624.557 241.902, 625.137 241.613, 625.916 240.158 C 626.830 238.449, 626.780 238.147, 625.652 238.580 C 624.885 238.874, 623.989 238.414, 623.660 237.557 C 623.332 236.701, 622.551 236, 621.924 236 C 621.298 236, 621.054 236.698, 621.382 237.552 M 542 239 C 541.099 239.582, 540.975 239.975, 541.691 239.985 C 542.346 239.993, 543.160 239.550, 543.500 239 C 544.267 237.758, 543.921 237.758, 542 239 M 592.500 239 C 592.160 239.550, 592.584 240, 593.441 240 C 594.298 240, 595 239.550, 595 239 C 595 238.450, 594.577 238, 594.059 238 C 593.541 238, 592.840 238.450, 592.500 239 M 609.232 250.750 C 604.174 256.113, 596.765 262.813, 592.768 265.639 C 583.739 272.024, 568.128 279.847, 557.250 283.440 C 552.712 284.938, 549 286.561, 549 287.047 C 549 287.532, 549.921 288.422, 551.046 289.024 C 555.605 291.464, 578.612 283.040, 593.500 273.479 C 596.800 271.359, 603.775 265.429, 609 260.301 C 618.031 251.437, 618.405 250.904, 616.573 249.499 C 615.513 248.686, 614.897 247.770, 615.204 247.463 C 615.511 247.156, 616.446 247.589, 617.283 248.426 C 618.644 249.787, 619.082 249.582, 621.453 246.473 C 622.910 244.563, 623.677 243, 623.158 243 C 622.639 243, 621.955 243.675, 621.638 244.500 C 620.980 246.216, 620.106 246.353, 618.064 245.061 C 616.874 244.308, 616.853 243.883, 617.937 242.576 C 618.656 241.709, 619.061 241, 618.836 241 C 618.612 241, 614.290 245.387, 609.232 250.750 M 539 244 C 539 244.733, 539.300 245.033, 539.667 244.667 C 540.033 244.300, 540.033 243.700, 539.667 243.333 C 539.300 242.967, 539 243.267, 539 244 M 584.500 249 C 584.160 249.550, 584.359 250, 584.941 250 C 585.523 250, 586 249.550, 586 249 C 586 248.450, 585.802 248, 585.559 248 C 585.316 248, 584.840 248.450, 584.500 249 M 609.333 254.667 C 609.700 255.033, 610.300 255.033, 610.667 254.667 C 611.033 254.300, 610.733 254, 610 254 C 609.267 254, 608.967 254.300, 609.333 254.667 M 271.559 466.532 C 269.965 467.738, 264.247 468.031, 239.559 468.171 L 209.500 468.342 239.500 469.035 C 260.346 469.516, 270.320 470.114, 272.186 470.995 C 275.419 472.521, 278 471.738, 278 469.231 C 278 467.203, 276.176 464.983, 274.550 465.032 C 273.973 465.049, 272.626 465.724, 271.559 466.532 M 755.120 466.776 C 754.517 467.902, 754.522 469.182, 755.134 470.276 C 756.464 472.652, 758.351 472.450, 757.710 470 C 757.176 467.959, 758.758 467.290, 760.550 468.800 C 761.072 469.240, 774.325 469.325, 790 468.989 L 818.500 468.378 790 468.157 C 766.740 467.977, 761.143 467.666, 759.559 466.468 C 758.491 465.661, 757.270 465, 756.844 465 C 756.419 465, 755.643 465.799, 755.120 466.776 M 273.639 467.694 C 272.513 468.820, 272.954 470, 274.500 470 C 275.325 470, 276 469.577, 276 469.059 C 276 467.798, 274.438 466.895, 273.639 467.694" stroke="none" fill="#B87C2B" fill-rule="evenodd"/>
      <path id="gold-tone-6" d="M 415 138 C 415 138.733, 415.300 139.033, 415.667 138.667 C 416.033 138.300, 416.033 137.700, 415.667 137.333 C 415.300 136.967, 415 137.267, 415 138 M 466 142 C 466 142.733, 466.300 143.033, 466.667 142.667 C 467.033 142.300, 467.033 141.700, 466.667 141.333 C 466.300 140.967, 466 141.267, 466 142 M 412.825 145.326 C 412.452 147.151, 412.592 147.808, 413.218 147.182 C 413.751 146.649, 414.011 145.377, 413.794 144.356 C 413.503 142.981, 413.251 143.233, 412.825 145.326 M 411.079 153.583 C 411.127 154.748, 411.364 154.985, 411.683 154.188 C 411.972 153.466, 411.936 152.603, 411.604 152.271 C 411.272 151.939, 411.036 152.529, 411.079 153.583 M 409.454 160.250 C 409.016 162.037, 408.758 164.554, 408.881 165.841 C 409.017 167.266, 408.693 167.928, 408.052 167.532 C 407.473 167.175, 407 166.282, 407 165.548 C 407 164.814, 406.376 163.975, 405.613 163.682 C 404.640 163.308, 404.377 163.724, 404.730 165.075 C 405.007 166.134, 405.540 167, 405.916 167 C 406.291 167, 407.188 168.631, 407.908 170.623 C 409.001 173.645, 408.993 174.394, 407.859 175.136 C 407.112 175.626, 405.712 175.837, 404.750 175.607 C 403.396 175.282, 403 175.829, 403 178.026 C 403 179.987, 403.619 181.062, 405 181.500 C 406.100 181.849, 407 182.554, 407 183.067 C 407 184.445, 405.238 184.200, 404.720 182.750 C 404.475 182.063, 403.972 181.777, 403.604 182.116 C 402.616 183.026, 404.088 191, 405.244 191 C 405.788 191, 406.025 189.909, 405.770 188.577 C 405.447 186.887, 405.815 186.020, 406.987 185.714 C 407.911 185.472, 408.689 185.775, 408.717 186.387 C 408.744 186.999, 409.019 188.761, 409.327 190.303 C 409.723 192.284, 409.434 193.280, 408.342 193.699 C 407.493 194.025, 406.418 193.676, 405.953 192.925 C 405.489 192.173, 404.828 191.839, 404.485 192.182 C 403.618 193.049, 406.220 197, 407.657 197 C 408.304 197, 409.050 196.438, 409.315 195.750 C 409.580 195.063, 409.800 195.400, 409.804 196.500 C 409.809 197.600, 410.049 199.487, 410.338 200.692 C 410.709 202.243, 410.474 202.735, 409.533 202.374 C 408.801 202.093, 407.892 202.365, 407.514 202.978 C 406.536 204.559, 407.981 214, 409.201 214 C 409.758 214, 409.946 213.302, 409.618 212.448 C 409.277 211.558, 409.445 211.157, 410.011 211.507 C 411.247 212.271, 411.317 215, 410.101 215 C 408.782 215, 414.142 228.768, 418.538 236.670 C 427.312 252.441, 441.963 268.833, 455.077 277.551 C 463.137 282.910, 477.851 290.554, 483 292.059 C 490.166 294.153, 502.732 296.341, 509.937 296.749 C 520.189 297.331, 525.750 296.340, 528.679 293.412 C 530.015 292.076, 530.827 290.530, 530.485 289.975 C 530.142 289.421, 529.440 289.228, 528.925 289.547 C 528.409 289.865, 523.378 290.102, 517.744 290.072 C 510.389 290.034, 504.619 289.318, 497.285 287.533 C 485.851 284.751, 471.517 278.445, 461.896 271.965 C 450.158 264.058, 433.559 246.424, 426.920 234.807 C 422.895 227.765, 417.786 216.404, 415.587 209.606 C 414.323 205.698, 412.487 197.559, 411.507 191.521 C 410.135 183.061, 409.878 177.841, 410.391 168.771 C 410.757 162.297, 410.875 157, 410.653 157 C 410.431 157, 409.892 158.463, 409.454 160.250 M 403.406 171.152 C 403.015 171.785, 403.518 172.905, 404.524 173.641 C 405.531 174.377, 406.540 174.793, 406.768 174.565 C 407.449 173.885, 405.937 170, 404.992 170 C 404.511 170, 403.798 170.518, 403.406 171.152 M 444.543 170.931 C 444.226 171.443, 444.350 172.098, 444.817 172.387 C 445.284 172.676, 445.667 172.257, 445.667 171.456 C 445.667 169.770, 445.351 169.623, 444.543 170.931 M 444.719 175.666 C 444.316 176.307, 444.391 177.882, 444.887 179.166 C 446.182 182.522, 450.253 185.997, 453.599 186.604 C 455.185 186.891, 457.293 187.860, 458.284 188.757 C 459.954 190.268, 460.038 190.264, 459.436 188.693 C 459.078 187.761, 456.921 186.160, 454.643 185.135 C 450.003 183.048, 446.388 179.507, 445.826 176.500 C 445.583 175.193, 445.199 174.904, 444.719 175.666 M 406.229 179.188 C 406.847 181.042, 409 181.349, 409 179.583 C 409 178.713, 408.288 178, 407.417 178 C 406.546 178, 406.011 178.534, 406.229 179.188 M 510.079 180.583 C 510.127 181.748, 510.364 181.985, 510.683 181.188 C 510.972 180.466, 510.936 179.603, 510.604 179.271 C 510.272 178.939, 510.036 179.529, 510.079 180.583 M 511.079 188.583 C 511.127 189.748, 511.364 189.985, 511.683 189.188 C 511.972 188.466, 511.936 187.603, 511.604 187.271 C 511.272 186.939, 511.036 187.529, 511.079 188.583 M 512.079 194.583 C 512.127 195.748, 512.364 195.985, 512.683 195.188 C 512.972 194.466, 512.936 193.603, 512.604 193.271 C 512.272 192.939, 512.036 193.529, 512.079 194.583 M 455 197 C 455 197.733, 455.300 198.033, 455.667 197.667 C 456.033 197.300, 456.033 196.700, 455.667 196.333 C 455.300 195.967, 455 196.267, 455 197 M 457 197.929 C 457 198.439, 456.293 199.564, 455.429 200.429 C 454.564 201.293, 454.287 202, 454.812 202 C 455.337 202, 455.988 202.847, 456.259 203.882 C 456.570 205.072, 458.877 206.558, 462.535 207.927 C 465.716 209.118, 468.951 209.849, 469.723 209.553 C 472.247 208.584, 470.098 207.201, 464.973 206.496 C 462.209 206.116, 459.261 205.118, 458.422 204.279 C 457.393 203.250, 457.102 201.814, 457.527 199.876 C 457.875 198.294, 457.898 197, 457.579 197 C 457.261 197, 457 197.418, 457 197.929 M 513.030 198.392 C 512.971 202.071, 517.251 214.618, 521.701 223.813 C 524.180 228.935, 526.419 232.914, 526.677 232.656 C 526.936 232.398, 526.021 229.782, 524.646 226.843 C 519.311 215.447, 517.258 210.240, 516.024 204.971 C 515.319 201.962, 514.364 198.825, 513.902 198 C 513.213 196.772, 513.055 196.843, 513.030 198.392 M 406 201 C 406 201.733, 406.300 202.033, 406.667 201.667 C 407.033 201.300, 407.033 200.700, 406.667 200.333 C 406.300 199.967, 406 200.267, 406 201 M 408.172 206.656 C 408.365 207.657, 409.305 208.628, 410.261 208.812 C 412.682 209.278, 412.440 207.306, 409.911 205.952 C 408.121 204.995, 407.872 205.096, 408.172 206.656 M 459.832 214.469 C 459.214 215.826, 458.323 216.700, 457.854 216.410 C 457.384 216.119, 457 216.127, 457 216.427 C 457 216.726, 458.775 218.146, 460.944 219.581 C 464.362 221.843, 464.848 222.625, 464.595 225.446 C 464.435 227.236, 463.952 229.268, 463.523 229.962 C 463.071 230.694, 463.320 231.580, 464.117 232.072 C 465.241 232.767, 465.174 233.155, 463.745 234.211 C 462.097 235.428, 462.116 235.690, 464.087 238.918 C 465.649 241.475, 466.385 241.995, 467.011 240.982 C 467.702 239.865, 468.122 239.857, 469.424 240.937 C 470.291 241.656, 470.993 242.752, 470.985 243.372 C 470.976 243.993, 470.551 243.838, 470.039 243.029 C 469.527 242.220, 468.760 241.907, 468.333 242.333 C 467.907 242.760, 468.220 243.538, 469.029 244.063 C 471.688 245.789, 475.272 246.311, 477.009 245.227 C 478.338 244.396, 479.178 244.622, 480.803 246.248 C 482.565 248.009, 483.139 248.130, 484.475 247.021 C 485.624 246.067, 486.669 245.982, 488.280 246.711 C 489.501 247.264, 493.040 247.504, 496.145 247.243 C 504.562 246.537, 512.626 249.506, 521.048 256.411 C 522.450 257.560, 521.548 256.436, 519.044 253.914 C 512.646 247.467, 505.566 244.960, 490.544 243.819 C 477.328 242.816, 471.242 240.825, 468.474 236.601 C 467.293 234.798, 466.964 232.952, 467.390 230.507 C 467.725 228.578, 468.263 225.525, 468.584 223.722 C 469.111 220.758, 468.799 220.202, 465.334 217.932 C 462.942 216.365, 461.610 214.777, 461.794 213.710 C 462.225 211.202, 461.128 211.626, 459.832 214.469 M 463 220 C 463.825 220.533, 464.950 220.969, 465.500 220.969 C 466.050 220.969, 465.825 220.533, 465 220 C 464.175 219.467, 463.050 219.031, 462.500 219.031 C 461.950 219.031, 462.175 219.467, 463 220 M 466 223 C 466 223.733, 466.300 224.033, 466.667 223.667 C 467.033 223.300, 467.033 222.700, 466.667 222.333 C 466.300 221.967, 466 222.267, 466 223 M 414.333 224.667 C 414.700 225.033, 415.300 225.033, 415.667 224.667 C 416.033 224.300, 415.733 224, 415 224 C 414.267 224, 413.967 224.300, 414.333 224.667 M 543 225.559 C 543 226.416, 543.457 226.835, 544.016 226.490 C 544.575 226.144, 544.774 225.443, 544.457 224.931 C 543.600 223.544, 543 223.802, 543 225.559 M 418.149 227.676 C 416.500 229.453, 417.281 230.502, 419.380 229.327 C 420.221 228.856, 420.592 227.965, 420.205 227.346 C 419.705 226.549, 419.106 226.646, 418.149 227.676 M 422 232 C 422 232.733, 422.300 233.033, 422.667 232.667 C 423.033 232.300, 423.033 231.700, 422.667 231.333 C 422.300 230.967, 422 231.267, 422 232 M 543 232 C 543 232.733, 543.300 233.033, 543.667 232.667 C 544.033 232.300, 544.033 231.700, 543.667 231.333 C 543.300 230.967, 543 231.267, 543 232 M 419 234 C 419 234.550, 419.450 235, 420 235 C 420.550 235, 421 234.550, 421 234 C 421 233.450, 420.550 233, 420 233 C 419.450 233, 419 233.450, 419 234 M 527.492 236 C 529.763 243.922, 531.334 248, 532.115 248 C 532.602 248, 533 247.792, 533 247.538 C 533 247.283, 532.044 244.471, 530.877 241.288 C 528.676 235.290, 526.163 231.364, 527.492 236 M 424 236.217 C 424 237.106, 423.478 238.007, 422.840 238.220 C 421.988 238.504, 421.969 239.122, 422.770 240.553 C 423.791 242.379, 423.928 242.318, 424.967 239.587 C 425.732 237.576, 425.753 236.353, 425.037 235.637 C 424.321 234.921, 424 235.100, 424 236.217 M 464.704 236.669 C 463.988 237.828, 465.657 240.676, 466.537 239.796 C 466.893 239.441, 466.754 238.383, 466.230 237.447 C 465.706 236.510, 465.019 236.160, 464.704 236.669 M 425.658 242.175 C 423.865 244.130, 423.872 244.222, 425.908 245.648 C 427.059 246.454, 428 247.763, 428 248.557 C 428 249.351, 428.502 250, 429.115 250 C 429.785 250, 429.551 248.964, 428.530 247.406 C 427.485 245.811, 427.063 243.885, 427.434 242.406 C 427.766 241.083, 427.917 240.037, 427.769 240.083 C 427.621 240.129, 426.671 241.070, 425.658 242.175 M 543.189 242.484 C 542.565 243.855, 542.365 245.769, 542.746 246.738 C 543.248 248.017, 543.623 247.404, 544.113 244.500 C 544.485 242.300, 544.685 240.386, 544.557 240.246 C 544.429 240.106, 543.814 241.113, 543.189 242.484 M 473 244 C 473 244.550, 473.450 245, 474 245 C 474.550 245, 475 244.550, 475 244 C 475 243.450, 474.550 243, 474 243 C 473.450 243, 473 243.450, 473 244 M 532 250 C 532 250.733, 532.300 251.033, 532.667 250.667 C 533.033 250.300, 533.033 249.700, 532.667 249.333 C 532.300 248.967, 532 249.267, 532 250 M 574 257.116 C 569.947 260.631, 562.247 265.830, 556.500 268.934 C 553.547 270.529, 553.170 270.959, 555.058 270.576 C 556.465 270.291, 559.165 269.338, 561.058 268.457 C 570.704 263.969, 573.615 261.951, 573.978 259.500 C 574.059 258.950, 574.949 258.599, 575.955 258.719 C 577.324 258.883, 577.749 258.317, 577.642 256.470 C 577.564 255.112, 577.500 254.019, 577.500 254.041 C 577.500 254.063, 575.925 255.447, 574 257.116 M 540.333 257.667 C 540.700 258.033, 541.300 258.033, 541.667 257.667 C 542.033 257.300, 541.733 257, 541 257 C 540.267 257, 539.967 257.300, 540.333 257.667 M 537 260 C 537 260.733, 537.300 261.033, 537.667 260.667 C 538.033 260.300, 538.033 259.700, 537.667 259.333 C 537.300 258.967, 537 259.267, 537 260 M 538 263.393 C 538 263.609, 538.675 264.045, 539.500 264.362 C 540.325 264.678, 541 264.501, 541 263.969 C 541 263.436, 540.325 263, 539.500 263 C 538.675 263, 538 263.177, 538 263.393 M 593.507 265.989 C 593.157 266.555, 593.558 266.723, 594.448 266.382 C 596.180 265.717, 596.497 265, 595.059 265 C 594.541 265, 593.843 265.445, 593.507 265.989 M 540.092 268.250 C 539.904 269.762, 539.694 271.525, 539.625 272.167 C 539.556 272.808, 538.938 273.521, 538.250 273.750 C 537.405 274.032, 537 273.006, 537 270.583 C 537 268.613, 536.663 267, 536.250 267 C 535.837 267, 535.490 275.212, 535.478 285.250 C 535.461 298.862, 535.036 305.150, 533.805 309.994 C 532.898 313.566, 532.316 316.649, 532.512 316.845 C 532.708 317.042, 534.240 314.487, 535.915 311.168 C 537.590 307.850, 539.436 302.067, 540.015 298.317 C 540.595 294.568, 540.927 285.650, 540.752 278.500 C 540.578 271.350, 540.281 266.738, 540.092 268.250 M 578 274.997 C 572.775 277.672, 565.125 281.051, 561 282.507 C 548.773 286.822, 548.402 287.010, 550.052 288.053 C 550.848 288.557, 552.913 288.976, 554.639 288.985 C 556.954 288.996, 557.741 288.566, 557.639 287.346 C 557.456 285.162, 562.632 283.598, 563.402 285.604 C 564.268 287.862, 566 287.203, 566 284.617 C 566 283, 566.710 282.048, 568.206 281.656 C 569.420 281.339, 570.624 281.291, 570.883 281.550 C 571.142 281.809, 570.487 282.677, 569.427 283.479 C 567.959 284.589, 567.857 284.940, 569 284.953 C 571.333 284.979, 572.743 283.669, 572.447 281.750 C 572.298 280.788, 572.587 280, 573.088 280 C 573.590 280, 574 280.675, 574 281.500 C 574 283.229, 574.874 283.374, 577 282 C 578 281.354, 578.083 281.026, 577.250 281.015 C 576.563 281.007, 576 280.358, 576 279.573 C 576 278.789, 578.465 276.736, 581.479 275.012 C 584.492 273.288, 587.219 271.455, 587.538 270.939 C 587.857 270.422, 587.979 270.030, 587.809 270.067 C 587.639 270.105, 583.225 272.323, 578 274.997 M 585.981 276.523 C 584.924 277.796, 584.986 277.943, 586.359 277.416 C 587.261 277.069, 588 276.384, 588 275.893 C 588 274.607, 587.421 274.788, 585.981 276.523 M 581 278 C 581.825 278.533, 582.950 278.969, 583.500 278.969 C 584.050 278.969, 583.825 278.533, 583 278 C 582.175 277.467, 581.050 277.031, 580.500 277.031 C 579.950 277.031, 580.175 277.467, 581 278 M 559.750 287.662 C 560.438 287.940, 561.563 287.940, 562.250 287.662 C 562.938 287.385, 562.375 287.158, 561 287.158 C 559.625 287.158, 559.063 287.385, 559.750 287.662 M 498.333 292.667 C 498.700 293.033, 499.300 293.033, 499.667 292.667 C 500.033 292.300, 499.733 292, 499 292 C 498.267 292, 497.967 292.300, 498.333 292.667 M 764.762 468.707 C 766.006 468.946, 767.806 468.937, 768.762 468.687 C 769.718 468.437, 768.700 468.241, 766.500 468.252 C 764.300 468.263, 763.518 468.468, 764.762 468.707 M 772.333 468.667 C 772.700 469.033, 773.300 469.033, 773.667 468.667 C 774.033 468.300, 773.733 468, 773 468 C 772.267 468, 771.967 468.300, 772.333 468.667" stroke="none" fill="#A16321" fill-rule="evenodd"/>
      <path id="gold-tone-7" d="M 409 172 C 409 172.733, 409.300 173.033, 409.667 172.667 C 410.033 172.300, 410.033 171.700, 409.667 171.333 C 409.300 170.967, 409 171.267, 409 172 M 409 178 C 409 178.733, 409.300 179.033, 409.667 178.667 C 410.033 178.300, 410.033 177.700, 409.667 177.333 C 409.300 176.967, 409 177.267, 409 178 M 413.079 205.583 C 413.127 206.748, 413.364 206.985, 413.683 206.188 C 413.972 205.466, 413.936 204.603, 413.604 204.271 C 413.272 203.939, 413.036 204.529, 413.079 205.583 M 457.500 205 C 457.840 205.550, 458.343 206, 458.618 206 C 458.893 206, 458.840 205.550, 458.500 205 C 458.160 204.450, 457.657 204, 457.382 204 C 457.107 204, 457.160 204.450, 457.500 205 M 468.333 208.667 C 468.700 209.033, 469.300 209.033, 469.667 208.667 C 470.033 208.300, 469.733 208, 469 208 C 468.267 208, 467.967 208.300, 468.333 208.667 M 418.066 220 C 418.069 220.825, 418.749 222.625, 419.577 224 L 421.083 226.500 420.421 224 C 420.056 222.625, 419.376 220.825, 418.909 220 C 418.155 218.667, 418.061 218.667, 418.066 220 M 466.500 220 C 466.840 220.550, 467.343 221, 467.618 221 C 467.893 221, 467.840 220.550, 467.500 220 C 467.160 219.450, 466.657 219, 466.382 219 C 466.107 219, 466.160 219.450, 466.500 220 M 422.031 227.500 C 422.031 228.050, 422.467 229.175, 423 230 C 423.533 230.825, 423.969 231.050, 423.969 230.500 C 423.969 229.950, 423.533 228.825, 423 228 C 422.467 227.175, 422.031 226.950, 422.031 227.500 M 427 236.941 C 427 237.459, 427.445 238.157, 427.989 238.493 C 428.555 238.843, 428.723 238.442, 428.382 237.552 C 427.717 235.820, 427 235.503, 427 236.941 M 475.333 242.667 C 475.700 243.033, 476.300 243.033, 476.667 242.667 C 477.033 242.300, 476.733 242, 476 242 C 475.267 242, 474.967 242.300, 475.333 242.667 M 478.083 243.367 C 478.313 243.569, 480.300 244.009, 482.500 244.344 C 485.288 244.768, 485.894 244.678, 484.500 244.047 C 482.580 243.177, 477.224 242.610, 478.083 243.367 M 487.500 244.500 C 488.050 244.688, 490.847 245.035, 493.716 245.271 C 496.585 245.507, 498.696 245.317, 498.407 244.850 C 498.118 244.382, 495.321 244.036, 492.191 244.079 C 489.061 244.122, 486.950 244.312, 487.500 244.500 M 500.733 246.124 C 501.412 246.808, 502.219 247.115, 502.526 246.807 C 502.834 246.499, 502.279 245.940, 501.293 245.564 C 499.868 245.022, 499.753 245.136, 500.733 246.124 M 509.333 248.667 C 509.700 249.033, 510.300 249.033, 510.667 248.667 C 511.033 248.300, 510.733 248, 510 248 C 509.267 248, 508.967 248.300, 509.333 248.667 M 436 249.395 C 436 250.326, 445.077 260.199, 448.360 262.839 C 450.715 264.733, 450.455 264.256, 447.321 260.932 C 445.023 258.495, 441.535 254.780, 439.571 252.679 C 437.607 250.577, 436 249.100, 436 249.395 M 443.500 268 C 443.840 268.550, 444.343 269, 444.618 269 C 444.893 269, 444.840 268.550, 444.500 268 C 444.160 267.450, 443.657 267, 443.382 267 C 443.107 267, 443.160 267.450, 443.500 268 M 459.083 271.261 C 459.313 271.404, 460.625 272.417, 462 273.511 L 464.500 275.500 462.595 273.250 C 461.547 272.012, 460.235 271, 459.678 271 C 459.122 271, 458.854 271.117, 459.083 271.261 M 467 276.476 C 467 276.675, 468.647 277.855, 470.660 279.099 C 473.929 281.119, 474.116 281.449, 472.410 282.178 C 471.090 282.743, 471.439 282.831, 473.539 282.464 C 475.651 282.096, 478.624 282.862, 483.289 284.977 C 486.980 286.651, 490 288.226, 490 288.479 C 490 288.731, 489.247 288.648, 488.326 288.295 C 487.058 287.808, 486.808 288.058, 487.295 289.326 C 487.795 290.630, 487.337 291.016, 485.219 291.070 C 482.800 291.133, 482.721 291.235, 484.500 292 C 487.731 293.388, 488.584 293.146, 490.041 290.424 C 491.051 288.536, 492.024 287.963, 493.680 288.279 C 497.702 289.048, 495.172 287.281, 490.603 286.130 C 488.167 285.517, 481.859 283.013, 476.586 280.565 C 471.314 278.118, 467 276.278, 467 276.476 M 550.813 286.683 C 551.534 286.972, 552.397 286.936, 552.729 286.604 C 553.061 286.272, 552.471 286.036, 551.417 286.079 C 550.252 286.127, 550.015 286.364, 550.813 286.683 M 475.500 288 C 475.160 288.550, 475.610 289, 476.500 289 C 477.390 289, 477.840 288.550, 477.500 288 C 477.160 287.450, 476.710 287, 476.500 287 C 476.290 287, 475.840 287.450, 475.500 288 M 480 288.941 C 480 289.459, 480.450 290.160, 481 290.500 C 481.550 290.840, 482 290.416, 482 289.559 C 482 288.702, 481.550 288, 481 288 C 480.450 288, 480 288.423, 480 288.941 M 498.813 289.683 C 499.534 289.972, 500.397 289.936, 500.729 289.604 C 501.061 289.272, 500.471 289.036, 499.417 289.079 C 498.252 289.127, 498.015 289.364, 498.813 289.683 M 507.813 290.683 C 508.534 290.972, 509.397 290.936, 509.729 290.604 C 510.061 290.272, 509.471 290.036, 508.417 290.079 C 507.252 290.127, 507.015 290.364, 507.813 290.683 M 526.750 290.662 C 527.438 290.940, 528.563 290.940, 529.250 290.662 C 529.938 290.385, 529.375 290.158, 528 290.158 C 526.625 290.158, 526.063 290.385, 526.750 290.662 M 515.750 291.723 C 517.538 291.945, 520.462 291.945, 522.250 291.723 C 524.038 291.502, 522.575 291.320, 519 291.320 C 515.425 291.320, 513.962 291.502, 515.750 291.723 M 515.269 296.693 C 516.242 296.947, 517.592 296.930, 518.269 296.656 C 518.946 296.382, 518.150 296.175, 516.500 296.195 C 514.850 296.215, 514.296 296.439, 515.269 296.693 M 537.827 299.131 C 536.403 300.591, 536.371 300.929, 537.615 301.406 C 538.418 301.714, 539.326 301.314, 539.632 300.516 C 540.570 298.072, 539.592 297.322, 537.827 299.131 M 537.500 304 C 537.160 304.550, 537.359 305, 537.941 305 C 538.523 305, 539 304.550, 539 304 C 539 303.450, 538.802 303, 538.559 303 C 538.316 303, 537.840 303.450, 537.500 304 M 535 308 C 535 309.100, 535.209 310, 535.465 310 C 535.720 310, 536.411 309.100, 537 308 C 537.854 306.404, 537.760 306, 536.535 306 C 535.667 306, 535 306.869, 535 308 M 533.624 312.539 C 532.659 315.053, 532.943 315.702, 534.122 313.675 C 534.706 312.671, 534.973 311.639, 534.715 311.382 C 534.458 311.124, 533.966 311.645, 533.624 312.539" stroke="none" fill="#824719" fill-rule="evenodd"/>
      <path id="gold-tone-8" d="M 489.333 286.667 C 489.700 287.033, 490.300 287.033, 490.667 286.667 C 491.033 286.300, 490.733 286, 490 286 C 489.267 286, 488.967 286.300, 489.333 286.667" stroke="none" fill="#673412" fill-rule="evenodd"/>
    </g>
  </g>
</svg>
